<svg width="218" height="87" viewBox="0 0 218 87" fill="none" xmlns="http://www.w3.org/2000/svg">
<g clip-path="url(#clip0_0_4927)">
<g filter="url(#filter0_d_0_4927)">
<rect width="218" height="87" rx="5" fill="#FBFCFE"/>
</g>
<g clip-path="url(#clip1_0_4927)">
<path d="M16.81 26V18.77H19.47C19.9967 18.77 20.4683 18.8617 20.885 19.045C21.3017 19.225 21.63 19.4917 21.87 19.845C22.1133 20.1983 22.235 20.63 22.235 21.14C22.235 21.62 22.1283 22.03 21.915 22.37C21.7017 22.71 21.4017 22.97 21.015 23.15C20.6317 23.33 20.18 23.42 19.66 23.42H18.28V26H16.81ZM18.265 22.29H19.62C19.9867 22.29 20.2867 22.1733 20.52 21.94C20.7533 21.7033 20.87 21.4117 20.87 21.065C20.87 20.705 20.7467 20.42 20.5 20.21C20.2533 19.9967 19.9533 19.89 19.6 19.89H18.265V22.29ZM24.5117 26.1C24.1817 26.1 23.8851 26.0383 23.6217 25.915C23.3584 25.7917 23.1501 25.6133 22.9967 25.38C22.8434 25.1433 22.7667 24.8567 22.7667 24.52C22.7667 23.9533 22.9784 23.5233 23.4017 23.23C23.8251 22.9333 24.4934 22.78 25.4067 22.77L26.0517 22.76V22.45C26.0517 22.2133 25.9817 22.0317 25.8417 21.905C25.7051 21.775 25.4917 21.7117 25.2017 21.715C24.9884 21.7183 24.7851 21.7683 24.5917 21.865C24.4017 21.9617 24.2717 22.13 24.2017 22.37H22.9867C23.0067 21.9967 23.1151 21.69 23.3117 21.45C23.5084 21.2067 23.7751 21.0267 24.1117 20.91C24.4517 20.79 24.8367 20.73 25.2667 20.73C25.7967 20.73 26.2217 20.7967 26.5417 20.93C26.8617 21.06 27.0934 21.2483 27.2367 21.495C27.3801 21.7383 27.4517 22.0283 27.4517 22.365V26H26.2317L26.1117 25.11C25.9351 25.4833 25.7134 25.7417 25.4467 25.885C25.1834 26.0283 24.8717 26.1 24.5117 26.1ZM25.0017 25.14C25.1351 25.14 25.2634 25.1167 25.3867 25.07C25.5134 25.02 25.6251 24.955 25.7217 24.875C25.8217 24.7917 25.9017 24.6983 25.9617 24.595C26.0217 24.4917 26.0517 24.385 26.0517 24.275V23.51L25.5267 23.52C25.2834 23.5233 25.0567 23.5533 24.8467 23.61C24.6367 23.6633 24.4667 23.7517 24.3367 23.875C24.2101 23.9983 24.1467 24.165 24.1467 24.375C24.1467 24.615 24.2301 24.8033 24.3967 24.94C24.5634 25.0733 24.7651 25.14 25.0017 25.14ZM29.3636 27.65C29.0103 27.65 28.7603 27.62 28.6136 27.56C28.4703 27.5033 28.3986 27.475 28.3986 27.475V26.545L28.9086 26.565C29.1319 26.5783 29.3119 26.5667 29.4486 26.53C29.5853 26.4967 29.6886 26.4517 29.7586 26.395C29.8319 26.3383 29.8836 26.2783 29.9136 26.215C29.9436 26.155 29.9653 26.1067 29.9786 26.07L30.0736 25.785L28.0636 20.83H29.5086L30.7486 24.2L32.0036 20.83H33.4286L31.3336 26.03C31.1536 26.47 30.9636 26.8067 30.7636 27.04C30.5636 27.2733 30.3469 27.4333 30.1136 27.52C29.8836 27.6067 29.6336 27.65 29.3636 27.65ZM33.2281 26L35.8181 18.77H37.3581L39.9431 26H38.4881L37.8981 24.325H35.2981L34.6931 26H33.2281ZM35.6231 23.05H37.5481L36.5931 20.18L35.6231 23.05ZM41.0288 26V18.77H43.6888C44.2154 18.77 44.6871 18.8617 45.1038 19.045C45.5204 19.225 45.8488 19.4917 46.0888 19.845C46.3321 20.1983 46.4538 20.63 46.4538 21.14C46.4538 21.62 46.3471 22.03 46.1338 22.37C45.9204 22.71 45.6204 22.97 45.2338 23.15C44.8504 23.33 44.3988 23.42 43.8788 23.42H42.4988V26H41.0288ZM42.4838 22.29H43.8388C44.2054 22.29 44.5054 22.1733 44.7388 21.94C44.9721 21.7033 45.0888 21.4117 45.0888 21.065C45.0888 20.705 44.9654 20.42 44.7188 20.21C44.4721 19.9967 44.1721 19.89 43.8188 19.89H42.4838V22.29ZM47.5522 18.77H49.0072V26H47.5522V18.77Z" fill="#BA4270"/>
<path opacity="0.5" d="M163.609 24.295C163.609 24.6783 163.566 25.005 163.479 25.275C163.392 25.545 163.237 25.75 163.014 25.89C162.794 26.03 162.481 26.1 162.074 26.1C161.817 26.1 161.576 26.07 161.349 26.01C161.126 25.95 160.977 25.905 160.904 25.875L160.969 24.99C161.072 25.0267 161.191 25.0733 161.324 25.13C161.461 25.1833 161.629 25.21 161.829 25.21C162.156 25.21 162.379 25.12 162.499 24.94C162.622 24.76 162.684 24.4567 162.684 24.03V18.77H163.609V24.295ZM167.041 26.1C166.771 26.0967 166.516 26.0583 166.276 25.985C166.039 25.9083 165.829 25.7967 165.646 25.65C165.462 25.5033 165.317 25.3217 165.211 25.105C165.107 24.885 165.056 24.63 165.056 24.34V20.83H165.981V24.245C165.981 24.5817 166.084 24.855 166.291 25.065C166.501 25.275 166.816 25.38 167.236 25.38C167.616 25.38 167.921 25.2817 168.151 25.085C168.384 24.885 168.501 24.5883 168.501 24.195V20.83H169.421V26H168.686L168.591 25.01C168.527 25.27 168.419 25.48 168.266 25.64C168.116 25.8 167.934 25.9183 167.721 25.995C167.511 26.0683 167.284 26.1033 167.041 26.1ZM172.698 26.1C172.338 26.1 172.003 26.045 171.693 25.935C171.387 25.8217 171.132 25.6467 170.928 25.41C170.725 25.17 170.597 24.865 170.543 24.495H171.383C171.43 24.6983 171.513 24.8683 171.633 25.005C171.757 25.1383 171.91 25.24 172.093 25.31C172.277 25.3767 172.477 25.41 172.693 25.41C173.04 25.41 173.32 25.345 173.533 25.215C173.747 25.085 173.853 24.885 173.853 24.615C173.853 24.425 173.797 24.2733 173.683 24.16C173.573 24.0433 173.402 23.9583 173.168 23.905L172.098 23.64C171.682 23.54 171.348 23.3833 171.098 23.17C170.848 22.9567 170.723 22.6583 170.723 22.275C170.72 21.9717 170.792 21.705 170.938 21.475C171.085 21.245 171.305 21.0633 171.598 20.93C171.892 20.7967 172.257 20.73 172.693 20.73C173.253 20.73 173.705 20.8567 174.048 21.11C174.395 21.36 174.575 21.7283 174.588 22.215H173.773C173.74 21.9683 173.628 21.7733 173.438 21.63C173.252 21.4833 173 21.41 172.683 21.41C172.353 21.41 172.085 21.4767 171.878 21.61C171.672 21.74 171.568 21.9433 171.568 22.22C171.568 22.4033 171.642 22.5483 171.788 22.655C171.935 22.7583 172.152 22.845 172.438 22.915L173.473 23.175C173.713 23.2383 173.91 23.3217 174.063 23.425C174.22 23.5283 174.343 23.6433 174.433 23.77C174.527 23.8967 174.592 24.03 174.628 24.17C174.668 24.3067 174.688 24.4383 174.688 24.565C174.688 24.8817 174.608 25.155 174.448 25.385C174.292 25.6117 174.065 25.7883 173.768 25.915C173.475 26.0383 173.118 26.1 172.698 26.1ZM178.5 21.505H177.335V24.72C177.335 24.9033 177.353 25.0383 177.39 25.125C177.43 25.2083 177.495 25.2617 177.585 25.285C177.678 25.3083 177.805 25.32 177.965 25.32H178.53V25.94C178.466 25.9633 178.37 25.9833 178.24 26C178.113 26.0167 177.955 26.025 177.765 26.025C177.408 26.025 177.131 25.9767 176.935 25.88C176.738 25.7833 176.6 25.64 176.52 25.45C176.443 25.26 176.405 25.0267 176.405 24.75V21.505H175.565V20.83H176.43L176.655 19.325H177.335V20.825H178.5V21.505ZM187.028 18.77H187.953V26H187.128L183.248 20.3V26H182.323V18.77H183.208L187.028 24.39V18.77ZM191.659 26.1C191.182 26.1 190.765 25.9983 190.409 25.795C190.052 25.5883 189.775 25.2867 189.579 24.89C189.382 24.4933 189.284 24.0083 189.284 23.435C189.284 22.895 189.375 22.4217 189.559 22.015C189.742 21.6083 190.01 21.2933 190.364 21.07C190.72 20.8433 191.152 20.73 191.659 20.73C192.135 20.73 192.549 20.835 192.899 21.045C193.252 21.2517 193.525 21.5567 193.719 21.96C193.912 22.3633 194.009 22.855 194.009 23.435C194.009 23.9617 193.919 24.425 193.739 24.825C193.562 25.225 193.299 25.5383 192.949 25.765C192.602 25.9883 192.172 26.1 191.659 26.1ZM191.659 25.37C191.969 25.37 192.23 25.2917 192.444 25.135C192.657 24.9783 192.819 24.7533 192.929 24.46C193.039 24.1667 193.094 23.8183 193.094 23.415C193.094 23.045 193.045 22.7133 192.949 22.42C192.852 22.1233 192.697 21.8883 192.484 21.715C192.274 21.5417 191.999 21.455 191.659 21.455C191.345 21.455 191.08 21.5333 190.864 21.69C190.647 21.8433 190.482 22.0667 190.369 22.36C190.259 22.6533 190.204 23.005 190.204 23.415C190.204 23.7783 190.254 24.1083 190.354 24.405C190.454 24.7017 190.61 24.9367 190.824 25.11C191.037 25.2833 191.315 25.37 191.659 25.37ZM201.833 20.83L200.268 26H199.358L198.178 22.185L197.058 26H196.153L194.558 20.83H195.413L196.598 24.805H196.678L197.843 20.83H198.543L199.753 24.795H199.833L200.968 20.83H201.833Z" fill="#36536B"/>
</g>
<path d="M16.23 35.62V34.77H21.7V35.62H19.495V42H18.565V35.62H16.23ZM22.7025 42V34.57H23.6025V37.59C23.6892 37.4467 23.8058 37.3133 23.9525 37.19C24.0992 37.0633 24.2775 36.9617 24.4875 36.885C24.6975 36.805 24.9408 36.765 25.2175 36.765C25.5542 36.765 25.8592 36.8283 26.1325 36.955C26.4058 37.0783 26.6225 37.255 26.7825 37.485C26.9425 37.715 27.0225 37.9883 27.0225 38.305V42H26.0975V38.49C26.0975 38.18 25.9908 37.9417 25.7775 37.775C25.5675 37.605 25.2925 37.52 24.9525 37.52C24.7225 37.52 24.5058 37.5583 24.3025 37.635C24.0992 37.7083 23.9342 37.8217 23.8075 37.975C23.6842 38.125 23.6225 38.3167 23.6225 38.55V42H22.7025ZM29.1242 39.63C29.1242 39.9567 29.1776 40.2533 29.2842 40.52C29.3942 40.7833 29.5592 40.9933 29.7792 41.15C30.0026 41.3067 30.2809 41.385 30.6142 41.385C30.9442 41.385 31.2276 41.3083 31.4642 41.155C31.7042 41.0017 31.8576 40.78 31.9242 40.49H32.7992C32.7359 40.84 32.5959 41.135 32.3792 41.375C32.1626 41.615 31.9009 41.7967 31.5942 41.92C31.2876 42.04 30.9676 42.1 30.6342 42.1C30.1509 42.1 29.7259 41.995 29.3592 41.785C28.9926 41.575 28.7059 41.2733 28.4992 40.88C28.2926 40.4867 28.1892 40.015 28.1892 39.465C28.1892 38.9217 28.2826 38.445 28.4692 38.035C28.6559 37.625 28.9259 37.305 29.2792 37.075C29.6359 36.845 30.0642 36.73 30.5642 36.73C31.0509 36.73 31.4626 36.835 31.7992 37.045C32.1359 37.255 32.3909 37.5517 32.5642 37.935C32.7409 38.315 32.8292 38.7667 32.8292 39.29V39.63H29.1242ZM29.1292 39.005H31.9392C31.9392 38.7083 31.8892 38.4417 31.7892 38.205C31.6892 37.965 31.5359 37.7767 31.3292 37.64C31.1259 37.5 30.8692 37.43 30.5592 37.43C30.2359 37.43 29.9676 37.5083 29.7542 37.665C29.5442 37.8183 29.3859 38.0167 29.2792 38.26C29.1759 38.5 29.1259 38.7483 29.1292 39.005ZM36.3353 43.61V36.83H37.2553L37.2653 37.73C37.3253 37.6233 37.402 37.5117 37.4953 37.395C37.592 37.2783 37.7086 37.17 37.8453 37.07C37.9853 36.97 38.147 36.8883 38.3303 36.825C38.517 36.7617 38.7286 36.73 38.9653 36.73C39.3786 36.73 39.742 36.825 40.0553 37.015C40.372 37.2017 40.6186 37.4883 40.7953 37.875C40.972 38.2617 41.0603 38.7517 41.0603 39.345C41.0603 39.9383 40.9736 40.44 40.8003 40.85C40.6303 41.2567 40.3836 41.5667 40.0603 41.78C39.737 41.9933 39.347 42.1 38.8903 42.1C38.6603 42.1 38.4553 42.0667 38.2753 42C38.0986 41.9367 37.9436 41.8533 37.8103 41.75C37.6803 41.6433 37.5703 41.53 37.4803 41.41C37.3936 41.29 37.322 41.175 37.2653 41.065V43.61H36.3353ZM38.7153 41.38C39.142 41.38 39.4903 41.2183 39.7603 40.895C40.0303 40.5683 40.1653 40.0617 40.1653 39.375C40.1653 38.785 40.042 38.3167 39.7953 37.97C39.5486 37.6233 39.1886 37.45 38.7153 37.45C38.2353 37.45 37.872 37.6283 37.6253 37.985C37.3786 38.3383 37.2553 38.8017 37.2553 39.375C37.2553 39.745 37.3103 40.0817 37.4203 40.385C37.5303 40.6883 37.6936 40.93 37.9103 41.11C38.127 41.29 38.3953 41.38 38.7153 41.38ZM43.6345 42.1C43.3011 42.1 43.0061 42.0417 42.7495 41.925C42.4928 41.805 42.2911 41.6333 42.1445 41.41C42.0011 41.1867 41.9295 40.9167 41.9295 40.6C41.9295 40.0267 42.1295 39.6 42.5295 39.32C42.9295 39.04 43.5711 38.89 44.4545 38.87L45.3795 38.845V38.44C45.3795 38.1233 45.2845 37.8733 45.0945 37.69C44.9045 37.5033 44.6095 37.41 44.2095 37.41C43.9128 37.4133 43.6511 37.4833 43.4245 37.62C43.2011 37.7567 43.0561 37.98 42.9895 38.29H42.1745C42.1945 37.9533 42.2895 37.67 42.4595 37.44C42.6295 37.2067 42.8661 37.03 43.1695 36.91C43.4761 36.79 43.8378 36.73 44.2545 36.73C44.7045 36.73 45.0778 36.7933 45.3745 36.92C45.6745 37.0467 45.8978 37.2333 46.0445 37.48C46.1945 37.7267 46.2695 38.03 46.2695 38.39V42H45.4795L45.4145 41.03C45.2145 41.4333 44.9595 41.7133 44.6495 41.87C44.3428 42.0233 44.0045 42.1 43.6345 42.1ZM43.9145 41.435C44.0878 41.435 44.2595 41.4033 44.4295 41.34C44.6028 41.2767 44.7611 41.1917 44.9045 41.085C45.0478 40.975 45.1611 40.8533 45.2445 40.72C45.3311 40.5833 45.3761 40.4433 45.3795 40.3V39.415L44.6095 39.43C44.2161 39.4367 43.8861 39.4767 43.6195 39.55C43.3561 39.6233 43.1578 39.7383 43.0245 39.895C42.8945 40.0517 42.8295 40.2567 42.8295 40.51C42.8295 40.8 42.9295 41.0267 43.1295 41.19C43.3328 41.3533 43.5945 41.435 43.9145 41.435ZM48.193 43.65C47.8896 43.65 47.6813 43.6283 47.568 43.585C47.4546 43.5417 47.398 43.52 47.398 43.52V42.92L47.923 42.93C48.1163 42.9367 48.2763 42.9233 48.403 42.89C48.5296 42.8567 48.6313 42.8117 48.708 42.755C48.7846 42.6983 48.843 42.635 48.883 42.565C48.9263 42.495 48.9613 42.4283 48.988 42.365L49.168 41.875L47.148 36.83H48.083L49.608 40.82L51.123 36.83H52.028L49.848 42.39C49.7146 42.7167 49.5646 42.9717 49.398 43.155C49.2346 43.3383 49.0513 43.4667 48.848 43.54C48.648 43.6133 48.4296 43.65 48.193 43.65ZM53.015 42V36.83H53.905V37.58C54.0483 37.3533 54.245 37.155 54.495 36.985C54.745 36.815 55.07 36.73 55.47 36.73C55.6567 36.73 55.8467 36.7617 56.04 36.825C56.2367 36.8883 56.4167 36.9833 56.58 37.11C56.7433 37.2367 56.87 37.3917 56.96 37.575C57.12 37.3217 57.3367 37.1183 57.61 36.965C57.8833 36.8083 58.1917 36.73 58.535 36.73C58.715 36.73 58.9033 36.7583 59.1 36.815C59.2967 36.8683 59.4783 36.965 59.645 37.105C59.815 37.2417 59.9533 37.4333 60.06 37.68C60.1667 37.9233 60.22 38.2367 60.22 38.62V42H59.29V38.71C59.29 38.3967 59.24 38.155 59.14 37.985C59.04 37.8117 58.9083 37.69 58.745 37.62C58.585 37.55 58.4133 37.515 58.23 37.515C58.07 37.515 57.9 37.5467 57.72 37.61C57.54 37.6733 57.3867 37.78 57.26 37.93C57.1333 38.08 57.07 38.285 57.07 38.545V42H56.15V38.44C56.15 38.2367 56.095 38.0667 55.985 37.93C55.8783 37.7933 55.7433 37.69 55.58 37.62C55.42 37.55 55.26 37.515 55.1 37.515C54.9233 37.515 54.745 37.55 54.565 37.62C54.3883 37.69 54.2383 37.8017 54.115 37.955C53.995 38.105 53.935 38.3017 53.935 38.545V42H53.015ZM62.3273 39.63C62.3273 39.9567 62.3807 40.2533 62.4873 40.52C62.5973 40.7833 62.7623 40.9933 62.9823 41.15C63.2057 41.3067 63.484 41.385 63.8173 41.385C64.1473 41.385 64.4307 41.3083 64.6673 41.155C64.9073 41.0017 65.0607 40.78 65.1273 40.49H66.0023C65.939 40.84 65.799 41.135 65.5823 41.375C65.3657 41.615 65.104 41.7967 64.7973 41.92C64.4907 42.04 64.1707 42.1 63.8373 42.1C63.354 42.1 62.929 41.995 62.5623 41.785C62.1957 41.575 61.909 41.2733 61.7023 40.88C61.4957 40.4867 61.3923 40.015 61.3923 39.465C61.3923 38.9217 61.4857 38.445 61.6723 38.035C61.859 37.625 62.129 37.305 62.4823 37.075C62.839 36.845 63.2673 36.73 63.7673 36.73C64.254 36.73 64.6657 36.835 65.0023 37.045C65.339 37.255 65.594 37.5517 65.7673 37.935C65.944 38.315 66.0323 38.7667 66.0323 39.29V39.63H62.3273ZM62.3323 39.005H65.1423C65.1423 38.7083 65.0923 38.4417 64.9923 38.205C64.8923 37.965 64.739 37.7767 64.5323 37.64C64.329 37.5 64.0723 37.43 63.7623 37.43C63.439 37.43 63.1707 37.5083 62.9573 37.665C62.7473 37.8183 62.589 38.0167 62.4823 38.26C62.379 38.5 62.329 38.7483 62.3323 39.005ZM67.3021 42V36.83H68.1971V37.58C68.2804 37.4367 68.3954 37.3017 68.5421 37.175C68.6921 37.0483 68.8721 36.9467 69.0821 36.87C69.2954 36.7933 69.5404 36.755 69.8171 36.755C70.1438 36.755 70.4438 36.82 70.7171 36.95C70.9938 37.08 71.2138 37.2833 71.3771 37.56C71.5438 37.8333 71.6271 38.1867 71.6271 38.62V42H70.7021V38.71C70.7021 38.3067 70.5954 38.0083 70.3821 37.815C70.1721 37.6183 69.8988 37.52 69.5621 37.52C69.3288 37.52 69.1104 37.5583 68.9071 37.635C68.7038 37.7083 68.5388 37.8217 68.4121 37.975C68.2854 38.125 68.2221 38.315 68.2221 38.545V42H67.3021ZM75.4561 37.505H74.2911V40.72C74.2911 40.9033 74.3094 41.0383 74.3461 41.125C74.3861 41.2083 74.4511 41.2617 74.5411 41.285C74.6344 41.3083 74.7611 41.32 74.9211 41.32H75.4861V41.94C75.4228 41.9633 75.3261 41.9833 75.1961 42C75.0694 42.0167 74.9111 42.025 74.7211 42.025C74.3644 42.025 74.0878 41.9767 73.8911 41.88C73.6944 41.7833 73.5561 41.64 73.4761 41.45C73.3994 41.26 73.3611 41.0267 73.3611 40.75V37.505H72.5211V36.83H73.3861L73.6111 35.325H74.2911V36.825H75.4561V37.505ZM79.0892 42V34.57H79.9892V37.59C80.0759 37.4467 80.1926 37.3133 80.3392 37.19C80.4859 37.0633 80.6642 36.9617 80.8742 36.885C81.0842 36.805 81.3276 36.765 81.6042 36.765C81.9409 36.765 82.2459 36.8283 82.5192 36.955C82.7926 37.0783 83.0092 37.255 83.1692 37.485C83.3292 37.715 83.4092 37.9883 83.4092 38.305V42H82.4842V38.49C82.4842 38.18 82.3776 37.9417 82.1642 37.775C81.9542 37.605 81.6792 37.52 81.3392 37.52C81.1092 37.52 80.8926 37.5583 80.6892 37.635C80.4859 37.7083 80.3209 37.8217 80.1942 37.975C80.0709 38.125 80.0092 38.3167 80.0092 38.55V42H79.0892ZM86.2614 42.1C85.9281 42.1 85.6331 42.0417 85.3764 41.925C85.1197 41.805 84.9181 41.6333 84.7714 41.41C84.6281 41.1867 84.5564 40.9167 84.5564 40.6C84.5564 40.0267 84.7564 39.6 85.1564 39.32C85.5564 39.04 86.1981 38.89 87.0814 38.87L88.0064 38.845V38.44C88.0064 38.1233 87.9114 37.8733 87.7214 37.69C87.5314 37.5033 87.2364 37.41 86.8364 37.41C86.5397 37.4133 86.2781 37.4833 86.0514 37.62C85.8281 37.7567 85.6831 37.98 85.6164 38.29H84.8014C84.8214 37.9533 84.9164 37.67 85.0864 37.44C85.2564 37.2067 85.4931 37.03 85.7964 36.91C86.1031 36.79 86.4647 36.73 86.8814 36.73C87.3314 36.73 87.7047 36.7933 88.0014 36.92C88.3014 37.0467 88.5247 37.2333 88.6714 37.48C88.8214 37.7267 88.8964 38.03 88.8964 38.39V42H88.1064L88.0414 41.03C87.8414 41.4333 87.5864 41.7133 87.2764 41.87C86.9697 42.0233 86.6314 42.1 86.2614 42.1ZM86.5414 41.435C86.7147 41.435 86.8864 41.4033 87.0564 41.34C87.2297 41.2767 87.3881 41.1917 87.5314 41.085C87.6747 40.975 87.7881 40.8533 87.8714 40.72C87.9581 40.5833 88.0031 40.4433 88.0064 40.3V39.415L87.2364 39.43C86.8431 39.4367 86.5131 39.4767 86.2464 39.55C85.9831 39.6233 85.7847 39.7383 85.6514 39.895C85.5214 40.0517 85.4564 40.2567 85.4564 40.51C85.4564 40.8 85.5564 41.0267 85.7564 41.19C85.9597 41.3533 86.2214 41.435 86.5414 41.435ZM92.223 42.1C91.863 42.1 91.528 42.045 91.218 41.935C90.9114 41.8217 90.6564 41.6467 90.453 41.41C90.2497 41.17 90.1214 40.865 90.068 40.495H90.908C90.9547 40.6983 91.038 40.8683 91.158 41.005C91.2814 41.1383 91.4347 41.24 91.618 41.31C91.8014 41.3767 92.0014 41.41 92.218 41.41C92.5647 41.41 92.8447 41.345 93.058 41.215C93.2714 41.085 93.378 40.885 93.378 40.615C93.378 40.425 93.3214 40.2733 93.208 40.16C93.098 40.0433 92.9264 39.9583 92.693 39.905L91.623 39.64C91.2064 39.54 90.873 39.3833 90.623 39.17C90.373 38.9567 90.248 38.6583 90.248 38.275C90.2447 37.9717 90.3164 37.705 90.463 37.475C90.6097 37.245 90.8297 37.0633 91.123 36.93C91.4164 36.7967 91.7814 36.73 92.218 36.73C92.778 36.73 93.2297 36.8567 93.573 37.11C93.9197 37.36 94.0997 37.7283 94.113 38.215H93.298C93.2647 37.9683 93.153 37.7733 92.963 37.63C92.7764 37.4833 92.5247 37.41 92.208 37.41C91.878 37.41 91.6097 37.4767 91.403 37.61C91.1964 37.74 91.093 37.9433 91.093 38.22C91.093 38.4033 91.1664 38.5483 91.313 38.655C91.4597 38.7583 91.6764 38.845 91.963 38.915L92.998 39.175C93.238 39.2383 93.4347 39.3217 93.588 39.425C93.7447 39.5283 93.868 39.6433 93.958 39.77C94.0514 39.8967 94.1164 40.03 94.153 40.17C94.193 40.3067 94.213 40.4383 94.213 40.565C94.213 40.8817 94.133 41.155 93.973 41.385C93.8164 41.6117 93.5897 41.7883 93.293 41.915C92.9997 42.0383 92.643 42.1 92.223 42.1ZM100.326 42.1C100.023 42.1 99.7659 42.06 99.5559 41.98C99.3492 41.9 99.1792 41.7983 99.0459 41.675C98.9125 41.5483 98.8092 41.42 98.7359 41.29C98.6625 41.1567 98.6092 41.04 98.5759 40.94L98.4759 42H97.7709V34.57H98.7009V37.65C98.7442 37.5633 98.8092 37.4683 98.8959 37.365C98.9859 37.2617 99.1009 37.1617 99.2409 37.065C99.3809 36.9683 99.5459 36.8883 99.7359 36.825C99.9292 36.7617 100.149 36.73 100.396 36.73C101.043 36.73 101.556 36.955 101.936 37.405C102.319 37.855 102.511 38.5183 102.511 39.395C102.511 39.9383 102.429 40.4133 102.266 40.82C102.103 41.2233 101.859 41.5383 101.536 41.765C101.213 41.9883 100.809 42.1 100.326 42.1ZM100.161 41.39C100.581 41.39 100.923 41.2283 101.186 40.905C101.449 40.5783 101.581 40.06 101.581 39.35C101.581 38.7467 101.458 38.28 101.211 37.95C100.968 37.6167 100.611 37.45 100.141 37.45C99.7975 37.45 99.5209 37.525 99.3109 37.675C99.1042 37.8217 98.9509 38.0367 98.8509 38.32C98.7542 38.6033 98.7042 38.9467 98.7009 39.35C98.7009 40.0733 98.8125 40.595 99.0359 40.915C99.2625 41.2317 99.6375 41.39 100.161 41.39ZM104.378 39.63C104.378 39.9567 104.431 40.2533 104.538 40.52C104.648 40.7833 104.813 40.9933 105.033 41.15C105.256 41.3067 105.535 41.385 105.868 41.385C106.198 41.385 106.481 41.3083 106.718 41.155C106.958 41.0017 107.111 40.78 107.178 40.49H108.053C107.99 40.84 107.85 41.135 107.633 41.375C107.416 41.615 107.155 41.7967 106.848 41.92C106.541 42.04 106.221 42.1 105.888 42.1C105.405 42.1 104.98 41.995 104.613 41.785C104.246 41.575 103.96 41.2733 103.753 40.88C103.546 40.4867 103.443 40.015 103.443 39.465C103.443 38.9217 103.536 38.445 103.723 38.035C103.91 37.625 104.18 37.305 104.533 37.075C104.89 36.845 105.318 36.73 105.818 36.73C106.305 36.73 106.716 36.835 107.053 37.045C107.39 37.255 107.645 37.5517 107.818 37.935C107.995 38.315 108.083 38.7667 108.083 39.29V39.63H104.378ZM104.383 39.005H107.193C107.193 38.7083 107.143 38.4417 107.043 38.205C106.943 37.965 106.79 37.7767 106.583 37.64C106.38 37.5 106.123 37.43 105.813 37.43C105.49 37.43 105.221 37.5083 105.008 37.665C104.798 37.8183 104.64 38.0167 104.533 38.26C104.43 38.5 104.38 38.7483 104.383 39.005ZM110.013 39.63C110.013 39.9567 110.066 40.2533 110.173 40.52C110.283 40.7833 110.448 40.9933 110.668 41.15C110.891 41.3067 111.17 41.385 111.503 41.385C111.833 41.385 112.116 41.3083 112.353 41.155C112.593 41.0017 112.746 40.78 112.813 40.49H113.688C113.625 40.84 113.485 41.135 113.268 41.375C113.051 41.615 112.79 41.7967 112.483 41.92C112.176 42.04 111.856 42.1 111.523 42.1C111.04 42.1 110.615 41.995 110.248 41.785C109.881 41.575 109.595 41.2733 109.388 40.88C109.181 40.4867 109.078 40.015 109.078 39.465C109.078 38.9217 109.171 38.445 109.358 38.035C109.545 37.625 109.815 37.305 110.168 37.075C110.525 36.845 110.953 36.73 111.453 36.73C111.94 36.73 112.351 36.835 112.688 37.045C113.025 37.255 113.28 37.5517 113.453 37.935C113.63 38.315 113.718 38.7667 113.718 39.29V39.63H110.013ZM110.018 39.005H112.828C112.828 38.7083 112.778 38.4417 112.678 38.205C112.578 37.965 112.425 37.7767 112.218 37.64C112.015 37.5 111.758 37.43 111.448 37.43C111.125 37.43 110.856 37.5083 110.643 37.665C110.433 37.8183 110.275 38.0167 110.168 38.26C110.065 38.5 110.015 38.7483 110.018 39.005ZM114.988 42V36.83H115.883V37.58C115.966 37.4367 116.081 37.3017 116.228 37.175C116.378 37.0483 116.558 36.9467 116.768 36.87C116.981 36.7933 117.226 36.755 117.503 36.755C117.829 36.755 118.129 36.82 118.403 36.95C118.679 37.08 118.899 37.2833 119.063 37.56C119.229 37.8333 119.313 38.1867 119.313 38.62V42H118.388V38.71C118.388 38.3067 118.281 38.0083 118.068 37.815C117.858 37.6183 117.584 37.52 117.248 37.52C117.014 37.52 116.796 37.5583 116.593 37.635C116.389 37.7083 116.224 37.8217 116.098 37.975C115.971 38.125 115.908 38.315 115.908 38.545V42H114.988ZM123.064 43.61V36.83H123.984L123.994 37.73C124.054 37.6233 124.13 37.5117 124.224 37.395C124.32 37.2783 124.437 37.17 124.574 37.07C124.714 36.97 124.875 36.8883 125.059 36.825C125.245 36.7617 125.457 36.73 125.694 36.73C126.107 36.73 126.47 36.825 126.784 37.015C127.1 37.2017 127.347 37.4883 127.524 37.875C127.7 38.2617 127.789 38.7517 127.789 39.345C127.789 39.9383 127.702 40.44 127.529 40.85C127.359 41.2567 127.112 41.5667 126.789 41.78C126.465 41.9933 126.075 42.1 125.619 42.1C125.389 42.1 125.184 42.0667 125.004 42C124.827 41.9367 124.672 41.8533 124.539 41.75C124.409 41.6433 124.299 41.53 124.209 41.41C124.122 41.29 124.05 41.175 123.994 41.065V43.61H123.064ZM125.444 41.38C125.87 41.38 126.219 41.2183 126.489 40.895C126.759 40.5683 126.894 40.0617 126.894 39.375C126.894 38.785 126.77 38.3167 126.524 37.97C126.277 37.6233 125.917 37.45 125.444 37.45C124.964 37.45 124.6 37.6283 124.354 37.985C124.107 38.3383 123.984 38.8017 123.984 39.375C123.984 39.745 124.039 40.0817 124.149 40.385C124.259 40.6883 124.422 40.93 124.639 41.11C124.855 41.29 125.124 41.38 125.444 41.38ZM129.001 42V36.83H129.881V37.825C129.968 37.5783 130.09 37.375 130.246 37.215C130.403 37.0517 130.581 36.93 130.781 36.85C130.985 36.77 131.195 36.73 131.411 36.73C131.488 36.73 131.563 36.735 131.636 36.745C131.71 36.755 131.766 36.7717 131.806 36.795V37.69C131.756 37.6667 131.691 37.6517 131.611 37.645C131.535 37.635 131.47 37.63 131.416 37.63C131.21 37.6167 131.016 37.63 130.836 37.67C130.656 37.7067 130.498 37.7717 130.361 37.865C130.225 37.9583 130.116 38.0817 130.036 38.235C129.96 38.385 129.921 38.5683 129.921 38.785V42H129.001ZM134.816 42.1C134.339 42.1 133.923 41.9983 133.566 41.795C133.209 41.5883 132.933 41.2867 132.736 40.89C132.539 40.4933 132.441 40.0083 132.441 39.435C132.441 38.895 132.533 38.4217 132.716 38.015C132.899 37.6083 133.168 37.2933 133.521 37.07C133.878 36.8433 134.309 36.73 134.816 36.73C135.293 36.73 135.706 36.835 136.056 37.045C136.409 37.2517 136.683 37.5567 136.876 37.96C137.069 38.3633 137.166 38.855 137.166 39.435C137.166 39.9617 137.076 40.425 136.896 40.825C136.719 41.225 136.456 41.5383 136.106 41.765C135.759 41.9883 135.329 42.1 134.816 42.1ZM134.816 41.37C135.126 41.37 135.388 41.2917 135.601 41.135C135.814 40.9783 135.976 40.7533 136.086 40.46C136.196 40.1667 136.251 39.8183 136.251 39.415C136.251 39.045 136.203 38.7133 136.106 38.42C136.009 38.1233 135.854 37.8883 135.641 37.715C135.431 37.5417 135.156 37.455 134.816 37.455C134.503 37.455 134.238 37.5333 134.021 37.69C133.804 37.8433 133.639 38.0667 133.526 38.36C133.416 38.6533 133.361 39.005 133.361 39.415C133.361 39.7783 133.411 40.1083 133.511 40.405C133.611 40.7017 133.768 40.9367 133.981 41.11C134.194 41.2833 134.473 41.37 134.816 41.37ZM140.436 36.73C140.806 36.73 141.14 36.8017 141.436 36.945C141.733 37.085 141.975 37.285 142.161 37.545C142.351 37.805 142.47 38.1117 142.516 38.465H141.696C141.666 38.285 141.596 38.12 141.486 37.97C141.38 37.82 141.238 37.7 141.061 37.61C140.885 37.52 140.678 37.475 140.441 37.475C139.998 37.475 139.638 37.635 139.361 37.955C139.085 38.275 138.946 38.765 138.946 39.425C138.946 40.0217 139.073 40.5 139.326 40.86C139.583 41.2167 139.96 41.395 140.456 41.395C140.693 41.395 140.898 41.35 141.071 41.26C141.248 41.1667 141.39 41.045 141.496 40.895C141.603 40.7417 141.671 40.5783 141.701 40.405H142.506C142.463 40.7517 142.346 41.0517 142.156 41.305C141.966 41.5583 141.723 41.755 141.426 41.895C141.133 42.0317 140.803 42.1 140.436 42.1C139.973 42.1 139.561 41.9983 139.201 41.795C138.845 41.5917 138.565 41.2917 138.361 40.895C138.158 40.4983 138.056 40.0117 138.056 39.435C138.056 38.895 138.148 38.4233 138.331 38.02C138.518 37.6133 138.788 37.2967 139.141 37.07C139.498 36.8433 139.93 36.73 140.436 36.73ZM144.427 39.63C144.427 39.9567 144.48 40.2533 144.587 40.52C144.697 40.7833 144.862 40.9933 145.082 41.15C145.305 41.3067 145.584 41.385 145.917 41.385C146.247 41.385 146.53 41.3083 146.767 41.155C147.007 41.0017 147.16 40.78 147.227 40.49H148.102C148.039 40.84 147.899 41.135 147.682 41.375C147.465 41.615 147.204 41.7967 146.897 41.92C146.59 42.04 146.27 42.1 145.937 42.1C145.454 42.1 145.029 41.995 144.662 41.785C144.295 41.575 144.009 41.2733 143.802 40.88C143.595 40.4867 143.492 40.015 143.492 39.465C143.492 38.9217 143.585 38.445 143.772 38.035C143.959 37.625 144.229 37.305 144.582 37.075C144.939 36.845 145.367 36.73 145.867 36.73C146.354 36.73 146.765 36.835 147.102 37.045C147.439 37.255 147.694 37.5517 147.867 37.935C148.044 38.315 148.132 38.7667 148.132 39.29V39.63H144.427ZM144.432 39.005H147.242C147.242 38.7083 147.192 38.4417 147.092 38.205C146.992 37.965 146.839 37.7767 146.632 37.64C146.429 37.5 146.172 37.43 145.862 37.43C145.539 37.43 145.27 37.5083 145.057 37.665C144.847 37.8183 144.689 38.0167 144.582 38.26C144.479 38.5 144.429 38.7483 144.432 39.005ZM151.198 42.1C150.838 42.1 150.503 42.045 150.193 41.935C149.886 41.8217 149.631 41.6467 149.428 41.41C149.224 41.17 149.096 40.865 149.043 40.495H149.883C149.929 40.6983 150.013 40.8683 150.133 41.005C150.256 41.1383 150.409 41.24 150.593 41.31C150.776 41.3767 150.976 41.41 151.193 41.41C151.539 41.41 151.819 41.345 152.033 41.215C152.246 41.085 152.353 40.885 152.353 40.615C152.353 40.425 152.296 40.2733 152.183 40.16C152.073 40.0433 151.901 39.9583 151.668 39.905L150.598 39.64C150.181 39.54 149.848 39.3833 149.598 39.17C149.348 38.9567 149.223 38.6583 149.223 38.275C149.219 37.9717 149.291 37.705 149.438 37.475C149.584 37.245 149.804 37.0633 150.098 36.93C150.391 36.7967 150.756 36.73 151.193 36.73C151.753 36.73 152.204 36.8567 152.548 37.11C152.894 37.36 153.074 37.7283 153.088 38.215H152.273C152.239 37.9683 152.128 37.7733 151.938 37.63C151.751 37.4833 151.499 37.41 151.183 37.41C150.853 37.41 150.584 37.4767 150.378 37.61C150.171 37.74 150.068 37.9433 150.068 38.22C150.068 38.4033 150.141 38.5483 150.288 38.655C150.434 38.7583 150.651 38.845 150.938 38.915L151.973 39.175C152.213 39.2383 152.409 39.3217 152.563 39.425C152.719 39.5283 152.843 39.6433 152.933 39.77C153.026 39.8967 153.091 40.03 153.128 40.17C153.168 40.3067 153.188 40.4383 153.188 40.565C153.188 40.8817 153.108 41.155 152.948 41.385C152.791 41.6117 152.564 41.7883 152.268 41.915C151.974 42.0383 151.618 42.1 151.198 42.1ZM156.227 42.1C155.867 42.1 155.532 42.045 155.222 41.935C154.915 41.8217 154.66 41.6467 154.457 41.41C154.254 41.17 154.125 40.865 154.072 40.495H154.912C154.959 40.6983 155.042 40.8683 155.162 41.005C155.285 41.1383 155.439 41.24 155.622 41.31C155.805 41.3767 156.005 41.41 156.222 41.41C156.569 41.41 156.849 41.345 157.062 41.215C157.275 41.085 157.382 40.885 157.382 40.615C157.382 40.425 157.325 40.2733 157.212 40.16C157.102 40.0433 156.93 39.9583 156.697 39.905L155.627 39.64C155.21 39.54 154.877 39.3833 154.627 39.17C154.377 38.9567 154.252 38.6583 154.252 38.275C154.249 37.9717 154.32 37.705 154.467 37.475C154.614 37.245 154.834 37.0633 155.127 36.93C155.42 36.7967 155.785 36.73 156.222 36.73C156.782 36.73 157.234 36.8567 157.577 37.11C157.924 37.36 158.104 37.7283 158.117 38.215H157.302C157.269 37.9683 157.157 37.7733 156.967 37.63C156.78 37.4833 156.529 37.41 156.212 37.41C155.882 37.41 155.614 37.4767 155.407 37.61C155.2 37.74 155.097 37.9433 155.097 38.22C155.097 38.4033 155.17 38.5483 155.317 38.655C155.464 38.7583 155.68 38.845 155.967 38.915L157.002 39.175C157.242 39.2383 157.439 39.3217 157.592 39.425C157.749 39.5283 157.872 39.6433 157.962 39.77C158.055 39.8967 158.12 40.03 158.157 40.17C158.197 40.3067 158.217 40.4383 158.217 40.565C158.217 40.8817 158.137 41.155 157.977 41.385C157.82 41.6117 157.594 41.7883 157.297 41.915C157.004 42.0383 156.647 42.1 156.227 42.1ZM160.169 39.63C160.169 39.9567 160.222 40.2533 160.329 40.52C160.439 40.7833 160.604 40.9933 160.824 41.15C161.047 41.3067 161.326 41.385 161.659 41.385C161.989 41.385 162.272 41.3083 162.509 41.155C162.749 41.0017 162.902 40.78 162.969 40.49H163.844C163.781 40.84 163.641 41.135 163.424 41.375C163.207 41.615 162.946 41.7967 162.639 41.92C162.332 42.04 162.012 42.1 161.679 42.1C161.196 42.1 160.771 41.995 160.404 41.785C160.037 41.575 159.751 41.2733 159.544 40.88C159.337 40.4867 159.234 40.015 159.234 39.465C159.234 38.9217 159.327 38.445 159.514 38.035C159.701 37.625 159.971 37.305 160.324 37.075C160.681 36.845 161.109 36.73 161.609 36.73C162.096 36.73 162.507 36.835 162.844 37.045C163.181 37.255 163.436 37.5517 163.609 37.935C163.786 38.315 163.874 38.7667 163.874 39.29V39.63H160.169ZM160.174 39.005H162.984C162.984 38.7083 162.934 38.4417 162.834 38.205C162.734 37.965 162.581 37.7767 162.374 37.64C162.171 37.5 161.914 37.43 161.604 37.43C161.281 37.43 161.012 37.5083 160.799 37.665C160.589 37.8183 160.431 38.0167 160.324 38.26C160.221 38.5 160.171 38.7483 160.174 39.005ZM167.009 42.1C166.339 42.1 165.807 41.87 165.414 41.41C165.021 40.95 164.824 40.2783 164.824 39.395C164.824 38.8583 164.902 38.39 165.059 37.99C165.219 37.59 165.456 37.28 165.769 37.06C166.082 36.84 166.472 36.73 166.939 36.73C167.186 36.73 167.404 36.7617 167.594 36.825C167.787 36.8883 167.954 36.9683 168.094 37.065C168.234 37.1617 168.347 37.2617 168.434 37.365C168.524 37.4683 168.591 37.5633 168.634 37.65V34.57H169.564V42H168.859L168.759 40.94C168.726 41.04 168.672 41.1567 168.599 41.29C168.526 41.42 168.422 41.5483 168.289 41.675C168.156 41.7983 167.984 41.9 167.774 41.98C167.567 42.06 167.312 42.1 167.009 42.1ZM167.174 41.39C167.697 41.39 168.071 41.2317 168.294 40.915C168.521 40.595 168.634 40.0733 168.634 39.35C168.631 38.9467 168.579 38.6033 168.479 38.32C168.382 38.0367 168.229 37.8217 168.019 37.675C167.812 37.525 167.537 37.45 167.194 37.45C166.767 37.45 166.421 37.6017 166.154 37.905C165.887 38.2083 165.754 38.69 165.754 39.35C165.754 39.9967 165.874 40.4983 166.114 40.855C166.357 41.2117 166.711 41.39 167.174 41.39ZM170.876 42V40.82H171.976V42H170.876ZM175.048 35.62V34.77H180.518V35.62H178.313V42H177.383V35.62H175.048ZM181.521 42V34.57H182.421V37.59C182.508 37.4467 182.624 37.3133 182.771 37.19C182.918 37.0633 183.096 36.9617 183.306 36.885C183.516 36.805 183.759 36.765 184.036 36.765C184.373 36.765 184.678 36.8283 184.951 36.955C185.224 37.0783 185.441 37.255 185.601 37.485C185.761 37.715 185.841 37.9883 185.841 38.305V42H184.916V38.49C184.916 38.18 184.809 37.9417 184.596 37.775C184.386 37.605 184.111 37.52 183.771 37.52C183.541 37.52 183.324 37.5583 183.121 37.635C182.918 37.7083 182.753 37.8217 182.626 37.975C182.503 38.125 182.441 38.3167 182.441 38.55V42H181.521ZM187.943 39.63C187.943 39.9567 187.996 40.2533 188.103 40.52C188.213 40.7833 188.378 40.9933 188.598 41.15C188.821 41.3067 189.099 41.385 189.433 41.385C189.763 41.385 190.046 41.3083 190.283 41.155C190.523 41.0017 190.676 40.78 190.743 40.49H191.618C191.554 40.84 191.414 41.135 191.198 41.375C190.981 41.615 190.719 41.7967 190.413 41.92C190.106 42.04 189.786 42.1 189.453 42.1C188.969 42.1 188.544 41.995 188.178 41.785C187.811 41.575 187.524 41.2733 187.318 40.88C187.111 40.4867 187.008 40.015 187.008 39.465C187.008 38.9217 187.101 38.445 187.288 38.035C187.474 37.625 187.744 37.305 188.098 37.075C188.454 36.845 188.883 36.73 189.383 36.73C189.869 36.73 190.281 36.835 190.618 37.045C190.954 37.255 191.209 37.5517 191.383 37.935C191.559 38.315 191.648 38.7667 191.648 39.29V39.63H187.943ZM187.948 39.005H190.758C190.758 38.7083 190.708 38.4417 190.608 38.205C190.508 37.965 190.354 37.7767 190.148 37.64C189.944 37.5 189.688 37.43 189.378 37.43C189.054 37.43 188.786 37.5083 188.573 37.665C188.363 37.8183 188.204 38.0167 188.098 38.26C187.994 38.5 187.944 38.7483 187.948 39.005ZM19.46 51.505H18.295V54.72C18.295 54.9033 18.3133 55.0383 18.35 55.125C18.39 55.2083 18.455 55.2617 18.545 55.285C18.6383 55.3083 18.765 55.32 18.925 55.32H19.49V55.94C19.4267 55.9633 19.33 55.9833 19.2 56C19.0733 56.0167 18.915 56.025 18.725 56.025C18.3683 56.025 18.0917 55.9767 17.895 55.88C17.6983 55.7833 17.56 55.64 17.48 55.45C17.4033 55.26 17.365 55.0267 17.365 54.75V51.505H16.525V50.83H17.39L17.615 49.325H18.295V50.825H19.46V51.505ZM22.7067 56.1C22.2301 56.1 21.8134 55.9983 21.4567 55.795C21.1001 55.5883 20.8234 55.2867 20.6267 54.89C20.4301 54.4933 20.3317 54.0083 20.3317 53.435C20.3317 52.895 20.4234 52.4217 20.6067 52.015C20.7901 51.6083 21.0584 51.2933 21.4117 51.07C21.7684 50.8433 22.2001 50.73 22.7067 50.73C23.1834 50.73 23.5967 50.835 23.9467 51.045C24.3001 51.2517 24.5734 51.5567 24.7667 51.96C24.9601 52.3633 25.0567 52.855 25.0567 53.435C25.0567 53.9617 24.9667 54.425 24.7867 54.825C24.6101 55.225 24.3467 55.5383 23.9967 55.765C23.6501 55.9883 23.2201 56.1 22.7067 56.1ZM22.7067 55.37C23.0167 55.37 23.2784 55.2917 23.4917 55.135C23.7051 54.9783 23.8667 54.7533 23.9767 54.46C24.0867 54.1667 24.1417 53.8183 24.1417 53.415C24.1417 53.045 24.0934 52.7133 23.9967 52.42C23.9001 52.1233 23.7451 51.8883 23.5317 51.715C23.3217 51.5417 23.0467 51.455 22.7067 51.455C22.3934 51.455 22.1284 51.5333 21.9117 51.69C21.6951 51.8433 21.5301 52.0667 21.4167 52.36C21.3067 52.6533 21.2517 53.005 21.2517 53.415C21.2517 53.7783 21.3017 54.1083 21.4017 54.405C21.5017 54.7017 21.6584 54.9367 21.8717 55.11C22.0851 55.2833 22.3634 55.37 22.7067 55.37ZM28.7276 51.505H27.5626V54.72C27.5626 54.9033 27.5809 55.0383 27.6176 55.125C27.6576 55.2083 27.7226 55.2617 27.8126 55.285C27.9059 55.3083 28.0326 55.32 28.1926 55.32H28.7576V55.94C28.6942 55.9633 28.5976 55.9833 28.4676 56C28.3409 56.0167 28.1826 56.025 27.9926 56.025C27.6359 56.025 27.3592 55.9767 27.1626 55.88C26.9659 55.7833 26.8276 55.64 26.7476 55.45C26.6709 55.26 26.6326 55.0267 26.6326 54.75V51.505H25.7926V50.83H26.6576L26.8826 49.325H27.5626V50.825H28.7276V51.505ZM31.447 56.1C31.1136 56.1 30.8186 56.0417 30.562 55.925C30.3053 55.805 30.1036 55.6333 29.957 55.41C29.8136 55.1867 29.742 54.9167 29.742 54.6C29.742 54.0267 29.942 53.6 30.342 53.32C30.742 53.04 31.3836 52.89 32.267 52.87L33.192 52.845V52.44C33.192 52.1233 33.097 51.8733 32.907 51.69C32.717 51.5033 32.422 51.41 32.022 51.41C31.7253 51.4133 31.4636 51.4833 31.237 51.62C31.0136 51.7567 30.8686 51.98 30.802 52.29H29.987C30.007 51.9533 30.102 51.67 30.272 51.44C30.442 51.2067 30.6786 51.03 30.982 50.91C31.2886 50.79 31.6503 50.73 32.067 50.73C32.517 50.73 32.8903 50.7933 33.187 50.92C33.487 51.0467 33.7103 51.2333 33.857 51.48C34.007 51.7267 34.082 52.03 34.082 52.39V56H33.292L33.227 55.03C33.027 55.4333 32.772 55.7133 32.462 55.87C32.1553 56.0233 31.817 56.1 31.447 56.1ZM31.727 55.435C31.9003 55.435 32.072 55.4033 32.242 55.34C32.4153 55.2767 32.5736 55.1917 32.717 55.085C32.8603 54.975 32.9736 54.8533 33.057 54.72C33.1436 54.5833 33.1886 54.4433 33.192 54.3V53.415L32.422 53.43C32.0286 53.4367 31.6986 53.4767 31.432 53.55C31.1686 53.6233 30.9703 53.7383 30.837 53.895C30.707 54.0517 30.642 54.2567 30.642 54.51C30.642 54.8 30.742 55.0267 30.942 55.19C31.1453 55.3533 31.407 55.435 31.727 55.435ZM36.9665 56.065C36.6865 56.065 36.4598 56.0267 36.2865 55.95C36.1165 55.8733 35.9848 55.77 35.8915 55.64C35.8015 55.51 35.7398 55.3617 35.7065 55.195C35.6765 55.025 35.6615 54.85 35.6615 54.67V48.57H36.5715V54.58C36.5715 54.84 36.6215 55.035 36.7215 55.165C36.8248 55.295 36.9682 55.3667 37.1515 55.38L37.4315 55.385V55.985C37.3548 56.0083 37.2748 56.0267 37.1915 56.04C37.1082 56.0567 37.0332 56.065 36.9665 56.065ZM42.3747 56.1C42.0414 56.1 41.7464 56.0417 41.4897 55.925C41.233 55.805 41.0314 55.6333 40.8847 55.41C40.7414 55.1867 40.6697 54.9167 40.6697 54.6C40.6697 54.0267 40.8697 53.6 41.2697 53.32C41.6697 53.04 42.3114 52.89 43.1947 52.87L44.1197 52.845V52.44C44.1197 52.1233 44.0247 51.8733 43.8347 51.69C43.6447 51.5033 43.3497 51.41 42.9497 51.41C42.653 51.4133 42.3914 51.4833 42.1647 51.62C41.9414 51.7567 41.7964 51.98 41.7297 52.29H40.9147C40.9347 51.9533 41.0297 51.67 41.1997 51.44C41.3697 51.2067 41.6064 51.03 41.9097 50.91C42.2164 50.79 42.578 50.73 42.9947 50.73C43.4447 50.73 43.818 50.7933 44.1147 50.92C44.4147 51.0467 44.638 51.2333 44.7847 51.48C44.9347 51.7267 45.0097 52.03 45.0097 52.39V56H44.2197L44.1547 55.03C43.9547 55.4333 43.6997 55.7133 43.3897 55.87C43.083 56.0233 42.7447 56.1 42.3747 56.1ZM42.6547 55.435C42.828 55.435 42.9997 55.4033 43.1697 55.34C43.343 55.2767 43.5014 55.1917 43.6447 55.085C43.788 54.975 43.9014 54.8533 43.9847 54.72C44.0714 54.5833 44.1164 54.4433 44.1197 54.3V53.415L43.3497 53.43C42.9564 53.4367 42.6264 53.4767 42.3597 53.55C42.0964 53.6233 41.898 53.7383 41.7647 53.895C41.6347 54.0517 41.5697 54.2567 41.5697 54.51C41.5697 54.8 41.6697 55.0267 41.8697 55.19C42.073 55.3533 42.3347 55.435 42.6547 55.435ZM46.5892 56V50.83H47.4792V51.58C47.6226 51.3533 47.8192 51.155 48.0692 50.985C48.3192 50.815 48.6442 50.73 49.0442 50.73C49.2309 50.73 49.4209 50.7617 49.6142 50.825C49.8109 50.8883 49.9909 50.9833 50.1542 51.11C50.3176 51.2367 50.4442 51.3917 50.5342 51.575C50.6942 51.3217 50.9109 51.1183 51.1842 50.965C51.4576 50.8083 51.7659 50.73 52.1092 50.73C52.2892 50.73 52.4776 50.7583 52.6742 50.815C52.8709 50.8683 53.0526 50.965 53.2192 51.105C53.3892 51.2417 53.5276 51.4333 53.6342 51.68C53.7409 51.9233 53.7942 52.2367 53.7942 52.62V56H52.8642V52.71C52.8642 52.3967 52.8142 52.155 52.7142 51.985C52.6142 51.8117 52.4826 51.69 52.3192 51.62C52.1592 51.55 51.9876 51.515 51.8042 51.515C51.6442 51.515 51.4742 51.5467 51.2942 51.61C51.1142 51.6733 50.9609 51.78 50.8342 51.93C50.7076 52.08 50.6442 52.285 50.6442 52.545V56H49.7242V52.44C49.7242 52.2367 49.6692 52.0667 49.5592 51.93C49.4526 51.7933 49.3176 51.69 49.1542 51.62C48.9942 51.55 48.8342 51.515 48.6742 51.515C48.4976 51.515 48.3192 51.55 48.1392 51.62C47.9626 51.69 47.8126 51.8017 47.6892 51.955C47.5692 52.105 47.5092 52.3017 47.5092 52.545V56H46.5892ZM57.2966 56.1C56.8199 56.1 56.4032 55.9983 56.0466 55.795C55.6899 55.5883 55.4132 55.2867 55.2166 54.89C55.0199 54.4933 54.9216 54.0083 54.9216 53.435C54.9216 52.895 55.0132 52.4217 55.1966 52.015C55.3799 51.6083 55.6482 51.2933 56.0016 51.07C56.3582 50.8433 56.7899 50.73 57.2966 50.73C57.7732 50.73 58.1866 50.835 58.5366 51.045C58.8899 51.2517 59.1632 51.5567 59.3566 51.96C59.5499 52.3633 59.6466 52.855 59.6466 53.435C59.6466 53.9617 59.5566 54.425 59.3766 54.825C59.1999 55.225 58.9366 55.5383 58.5866 55.765C58.2399 55.9883 57.8099 56.1 57.2966 56.1ZM57.2966 55.37C57.6066 55.37 57.8682 55.2917 58.0816 55.135C58.2949 54.9783 58.4566 54.7533 58.5666 54.46C58.6766 54.1667 58.7316 53.8183 58.7316 53.415C58.7316 53.045 58.6832 52.7133 58.5866 52.42C58.4899 52.1233 58.3349 51.8883 58.1216 51.715C57.9116 51.5417 57.6366 51.455 57.2966 51.455C56.9832 51.455 56.7182 51.5333 56.5016 51.69C56.2849 51.8433 56.1199 52.0667 56.0066 52.36C55.8966 52.6533 55.8416 53.005 55.8416 53.415C55.8416 53.7783 55.8916 54.1083 55.9916 54.405C56.0916 54.7017 56.2482 54.9367 56.4616 55.11C56.6749 55.2833 56.9532 55.37 57.2966 55.37ZM62.6689 56.1C62.3989 56.0967 62.1439 56.0583 61.9039 55.985C61.6672 55.9083 61.4572 55.7967 61.2739 55.65C61.0906 55.5033 60.9456 55.3217 60.8389 55.105C60.7356 54.885 60.6839 54.63 60.6839 54.34V50.83H61.6089V54.245C61.6089 54.5817 61.7122 54.855 61.9189 55.065C62.1289 55.275 62.4439 55.38 62.8639 55.38C63.2439 55.38 63.5489 55.2817 63.7789 55.085C64.0122 54.885 64.1289 54.5883 64.1289 54.195V50.83H65.0489V56H64.3139L64.2189 55.01C64.1556 55.27 64.0472 55.48 63.8939 55.64C63.7439 55.8 63.5622 55.9183 63.3489 55.995C63.1389 56.0683 62.9122 56.1033 62.6689 56.1ZM66.5599 56V50.83H67.4549V51.58C67.5383 51.4367 67.6533 51.3017 67.7999 51.175C67.9499 51.0483 68.1299 50.9467 68.3399 50.87C68.5533 50.7933 68.7983 50.755 69.0749 50.755C69.4016 50.755 69.7016 50.82 69.9749 50.95C70.2516 51.08 70.4716 51.2833 70.6349 51.56C70.8016 51.8333 70.8849 52.1867 70.8849 52.62V56H69.9599V52.71C69.9599 52.3067 69.8533 52.0083 69.6399 51.815C69.4299 51.6183 69.1566 51.52 68.8199 51.52C68.5866 51.52 68.3683 51.5583 68.1649 51.635C67.9616 51.7083 67.7966 51.8217 67.6699 51.975C67.5433 52.125 67.4799 52.315 67.4799 52.545V56H66.5599ZM74.7139 51.505H73.5489V54.72C73.5489 54.9033 73.5672 55.0383 73.6039 55.125C73.6439 55.2083 73.7089 55.2617 73.7989 55.285C73.8922 55.3083 74.0189 55.32 74.1789 55.32H74.7439V55.94C74.6806 55.9633 74.5839 55.9833 74.4539 56C74.3272 56.0167 74.1689 56.025 73.9789 56.025C73.6222 56.025 73.3456 55.9767 73.1489 55.88C72.9522 55.7833 72.8139 55.64 72.7339 55.45C72.6572 55.26 72.6189 55.0267 72.6189 54.75V51.505H71.7789V50.83H72.6439L72.8689 49.325H73.5489V50.825H74.7139V51.505ZM80.0851 56.1C79.4151 56.1 78.8834 55.87 78.4901 55.41C78.0967 54.95 77.9001 54.2783 77.9001 53.395C77.9001 52.8583 77.9784 52.39 78.1351 51.99C78.2951 51.59 78.5317 51.28 78.8451 51.06C79.1584 50.84 79.5484 50.73 80.0151 50.73C80.2617 50.73 80.4801 50.7617 80.6701 50.825C80.8634 50.8883 81.0301 50.9683 81.1701 51.065C81.3101 51.1617 81.4234 51.2617 81.5101 51.365C81.6001 51.4683 81.6667 51.5633 81.7101 51.65V48.57H82.6401V56H81.9351L81.8351 54.94C81.8017 55.04 81.7484 55.1567 81.6751 55.29C81.6017 55.42 81.4984 55.5483 81.3651 55.675C81.2317 55.7983 81.0601 55.9 80.8501 55.98C80.6434 56.06 80.3884 56.1 80.0851 56.1ZM80.2501 55.39C80.7734 55.39 81.1467 55.2317 81.3701 54.915C81.5967 54.595 81.7101 54.0733 81.7101 53.35C81.7067 52.9467 81.6551 52.6033 81.5551 52.32C81.4584 52.0367 81.3051 51.8217 81.0951 51.675C80.8884 51.525 80.6134 51.45 80.2701 51.45C79.8434 51.45 79.4967 51.6017 79.2301 51.905C78.9634 52.2083 78.8301 52.69 78.8301 53.35C78.8301 53.9967 78.9501 54.4983 79.1901 54.855C79.4334 55.2117 79.7867 55.39 80.2501 55.39ZM84.8273 53.63C84.8273 53.9567 84.8807 54.2533 84.9873 54.52C85.0973 54.7833 85.2623 54.9933 85.4823 55.15C85.7057 55.3067 85.984 55.385 86.3173 55.385C86.6473 55.385 86.9307 55.3083 87.1673 55.155C87.4073 55.0017 87.5607 54.78 87.6273 54.49H88.5023C88.439 54.84 88.299 55.135 88.0823 55.375C87.8657 55.615 87.604 55.7967 87.2973 55.92C86.9907 56.04 86.6707 56.1 86.3373 56.1C85.854 56.1 85.429 55.995 85.0623 55.785C84.6957 55.575 84.409 55.2733 84.2023 54.88C83.9957 54.4867 83.8923 54.015 83.8923 53.465C83.8923 52.9217 83.9857 52.445 84.1723 52.035C84.359 51.625 84.629 51.305 84.9823 51.075C85.339 50.845 85.7673 50.73 86.2673 50.73C86.754 50.73 87.1657 50.835 87.5023 51.045C87.839 51.255 88.094 51.5517 88.2673 51.935C88.444 52.315 88.5323 52.7667 88.5323 53.29V53.63H84.8273ZM84.8323 53.005H87.6423C87.6423 52.7083 87.5923 52.4417 87.4923 52.205C87.3923 51.965 87.239 51.7767 87.0323 51.64C86.829 51.5 86.5723 51.43 86.2623 51.43C85.939 51.43 85.6707 51.5083 85.4573 51.665C85.2473 51.8183 85.089 52.0167 84.9823 52.26C84.879 52.5 84.829 52.7483 84.8323 53.005ZM91.6671 56.1C90.9971 56.1 90.4654 55.87 90.0721 55.41C89.6788 54.95 89.4821 54.2783 89.4821 53.395C89.4821 52.8583 89.5604 52.39 89.7171 51.99C89.8771 51.59 90.1138 51.28 90.4271 51.06C90.7404 50.84 91.1304 50.73 91.5971 50.73C91.8438 50.73 92.0621 50.7617 92.2521 50.825C92.4454 50.8883 92.6121 50.9683 92.7521 51.065C92.8921 51.1617 93.0054 51.2617 93.0921 51.365C93.1821 51.4683 93.2488 51.5633 93.2921 51.65V48.57H94.2221V56H93.5171L93.4171 54.94C93.3838 55.04 93.3304 55.1567 93.2571 55.29C93.1838 55.42 93.0804 55.5483 92.9471 55.675C92.8138 55.7983 92.6421 55.9 92.4321 55.98C92.2254 56.06 91.9704 56.1 91.6671 56.1ZM91.8321 55.39C92.3554 55.39 92.7288 55.2317 92.9521 54.915C93.1788 54.595 93.2921 54.0733 93.2921 53.35C93.2888 52.9467 93.2371 52.6033 93.1371 52.32C93.0404 52.0367 92.8871 51.8217 92.6771 51.675C92.4704 51.525 92.1954 51.45 91.8521 51.45C91.4254 51.45 91.0788 51.6017 90.8121 51.905C90.5454 52.2083 90.4121 52.69 90.4121 53.35C90.4121 53.9967 90.5321 54.4983 90.7721 54.855C91.0154 55.2117 91.3688 55.39 91.8321 55.39ZM97.6494 56.1C97.3794 56.0967 97.1244 56.0583 96.8844 55.985C96.6477 55.9083 96.4377 55.7967 96.2544 55.65C96.071 55.5033 95.926 55.3217 95.8194 55.105C95.716 54.885 95.6644 54.63 95.6644 54.34V50.83H96.5894V54.245C96.5894 54.5817 96.6927 54.855 96.8994 55.065C97.1094 55.275 97.4244 55.38 97.8444 55.38C98.2244 55.38 98.5294 55.2817 98.7594 55.085C98.9927 54.885 99.1094 54.5883 99.1094 54.195V50.83H100.029V56H99.2944L99.1994 55.01C99.136 55.27 99.0277 55.48 98.8744 55.64C98.7244 55.8 98.5427 55.9183 98.3294 55.995C98.1194 56.0683 97.8927 56.1033 97.6494 56.1ZM103.532 50.73C103.902 50.73 104.235 50.8017 104.532 50.945C104.829 51.085 105.07 51.285 105.257 51.545C105.447 51.805 105.565 52.1117 105.612 52.465H104.792C104.762 52.285 104.692 52.12 104.582 51.97C104.475 51.82 104.334 51.7 104.157 51.61C103.98 51.52 103.774 51.475 103.537 51.475C103.094 51.475 102.734 51.635 102.457 51.955C102.18 52.275 102.042 52.765 102.042 53.425C102.042 54.0217 102.169 54.5 102.422 54.86C102.679 55.2167 103.055 55.395 103.552 55.395C103.789 55.395 103.994 55.35 104.167 55.26C104.344 55.1667 104.485 55.045 104.592 54.895C104.699 54.7417 104.767 54.5783 104.797 54.405H105.602C105.559 54.7517 105.442 55.0517 105.252 55.305C105.062 55.5583 104.819 55.755 104.522 55.895C104.229 56.0317 103.899 56.1 103.532 56.1C103.069 56.1 102.657 55.9983 102.297 55.795C101.94 55.5917 101.66 55.2917 101.457 54.895C101.254 54.4983 101.152 54.0117 101.152 53.435C101.152 52.895 101.244 52.4233 101.427 52.02C101.614 51.6133 101.884 51.2967 102.237 51.07C102.594 50.8433 103.025 50.73 103.532 50.73ZM109.323 51.505H108.158V54.72C108.158 54.9033 108.177 55.0383 108.213 55.125C108.253 55.2083 108.318 55.2617 108.408 55.285C108.502 55.3083 108.628 55.32 108.788 55.32H109.353V55.94C109.29 55.9633 109.193 55.9833 109.063 56C108.937 56.0167 108.778 56.025 108.588 56.025C108.232 56.025 107.955 55.9767 107.758 55.88C107.562 55.7833 107.423 55.64 107.343 55.45C107.267 55.26 107.228 55.0267 107.228 54.75V51.505H106.388V50.83H107.253L107.478 49.325H108.158V50.825H109.323V51.505ZM111.175 53.63C111.175 53.9567 111.228 54.2533 111.335 54.52C111.445 54.7833 111.61 54.9933 111.83 55.15C112.053 55.3067 112.332 55.385 112.665 55.385C112.995 55.385 113.278 55.3083 113.515 55.155C113.755 55.0017 113.908 54.78 113.975 54.49H114.85C114.787 54.84 114.647 55.135 114.43 55.375C114.213 55.615 113.952 55.7967 113.645 55.92C113.338 56.04 113.018 56.1 112.685 56.1C112.202 56.1 111.777 55.995 111.41 55.785C111.043 55.575 110.757 55.2733 110.55 54.88C110.343 54.4867 110.24 54.015 110.24 53.465C110.24 52.9217 110.333 52.445 110.52 52.035C110.707 51.625 110.977 51.305 111.33 51.075C111.687 50.845 112.115 50.73 112.615 50.73C113.102 50.73 113.513 50.835 113.85 51.045C114.187 51.255 114.442 51.5517 114.615 51.935C114.792 52.315 114.88 52.7667 114.88 53.29V53.63H111.175ZM111.18 53.005H113.99C113.99 52.7083 113.94 52.4417 113.84 52.205C113.74 51.965 113.587 51.7767 113.38 51.64C113.177 51.5 112.92 51.43 112.61 51.43C112.287 51.43 112.018 51.5083 111.805 51.665C111.595 51.8183 111.437 52.0167 111.33 52.26C111.227 52.5 111.177 52.7483 111.18 53.005ZM118.015 56.1C117.345 56.1 116.813 55.87 116.42 55.41C116.026 54.95 115.83 54.2783 115.83 53.395C115.83 52.8583 115.908 52.39 116.065 51.99C116.225 51.59 116.461 51.28 116.775 51.06C117.088 50.84 117.478 50.73 117.945 50.73C118.191 50.73 118.41 50.7617 118.6 50.825C118.793 50.8883 118.96 50.9683 119.1 51.065C119.24 51.1617 119.353 51.2617 119.44 51.365C119.53 51.4683 119.596 51.5633 119.64 51.65V48.57H120.57V56H119.865L119.765 54.94C119.731 55.04 119.678 55.1567 119.605 55.29C119.531 55.42 119.428 55.5483 119.295 55.675C119.161 55.7983 118.99 55.9 118.78 55.98C118.573 56.06 118.318 56.1 118.015 56.1ZM118.18 55.39C118.703 55.39 119.076 55.2317 119.3 54.915C119.526 54.595 119.64 54.0733 119.64 53.35C119.636 52.9467 119.585 52.6033 119.485 52.32C119.388 52.0367 119.235 51.8217 119.025 51.675C118.818 51.525 118.543 51.45 118.2 51.45C117.773 51.45 117.426 51.6017 117.16 51.905C116.893 52.2083 116.76 52.69 116.76 53.35C116.76 53.9967 116.88 54.4983 117.12 54.855C117.363 55.2117 117.716 55.39 118.18 55.39ZM127.322 50.83V51.505H126.067V56H125.137V51.505H124.047V50.83H125.137V50.03C125.137 49.62 125.242 49.3083 125.452 49.095C125.662 48.8783 125.975 48.77 126.392 48.77H127.367L127.372 49.425H126.597C126.387 49.425 126.243 49.4817 126.167 49.595C126.09 49.7083 126.052 49.88 126.052 50.11V50.83H127.322ZM128.464 56V50.83H129.344V51.825C129.431 51.5783 129.553 51.375 129.709 51.215C129.866 51.0517 130.044 50.93 130.244 50.85C130.448 50.77 130.658 50.73 130.874 50.73C130.951 50.73 131.026 50.735 131.099 50.745C131.173 50.755 131.229 50.7717 131.269 50.795V51.69C131.219 51.6667 131.154 51.6517 131.074 51.645C130.998 51.635 130.933 51.63 130.879 51.63C130.673 51.6167 130.479 51.63 130.299 51.67C130.119 51.7067 129.961 51.7717 129.824 51.865C129.688 51.9583 129.579 52.0817 129.499 52.235C129.423 52.385 129.384 52.5683 129.384 52.785V56H128.464ZM134.279 56.1C133.802 56.1 133.386 55.9983 133.029 55.795C132.672 55.5883 132.396 55.2867 132.199 54.89C132.002 54.4933 131.904 54.0083 131.904 53.435C131.904 52.895 131.996 52.4217 132.179 52.015C132.362 51.6083 132.631 51.2933 132.984 51.07C133.341 50.8433 133.772 50.73 134.279 50.73C134.756 50.73 135.169 50.835 135.519 51.045C135.872 51.2517 136.146 51.5567 136.339 51.96C136.532 52.3633 136.629 52.855 136.629 53.435C136.629 53.9617 136.539 54.425 136.359 54.825C136.182 55.225 135.919 55.5383 135.569 55.765C135.222 55.9883 134.792 56.1 134.279 56.1ZM134.279 55.37C134.589 55.37 134.851 55.2917 135.064 55.135C135.277 54.9783 135.439 54.7533 135.549 54.46C135.659 54.1667 135.714 53.8183 135.714 53.415C135.714 53.045 135.666 52.7133 135.569 52.42C135.472 52.1233 135.317 51.8883 135.104 51.715C134.894 51.5417 134.619 51.455 134.279 51.455C133.966 51.455 133.701 51.5333 133.484 51.69C133.267 51.8433 133.102 52.0667 132.989 52.36C132.879 52.6533 132.824 53.005 132.824 53.415C132.824 53.7783 132.874 54.1083 132.974 54.405C133.074 54.7017 133.231 54.9367 133.444 55.11C133.657 55.2833 133.936 55.37 134.279 55.37ZM137.839 56V50.83H138.729V51.58C138.873 51.3533 139.069 51.155 139.319 50.985C139.569 50.815 139.894 50.73 140.294 50.73C140.481 50.73 140.671 50.7617 140.864 50.825C141.061 50.8883 141.241 50.9833 141.404 51.11C141.568 51.2367 141.694 51.3917 141.784 51.575C141.944 51.3217 142.161 51.1183 142.434 50.965C142.708 50.8083 143.016 50.73 143.359 50.73C143.539 50.73 143.728 50.7583 143.924 50.815C144.121 50.8683 144.303 50.965 144.469 51.105C144.639 51.2417 144.778 51.4333 144.884 51.68C144.991 51.9233 145.044 52.2367 145.044 52.62V56H144.114V52.71C144.114 52.3967 144.064 52.155 143.964 51.985C143.864 51.8117 143.733 51.69 143.569 51.62C143.409 51.55 143.238 51.515 143.054 51.515C142.894 51.515 142.724 51.5467 142.544 51.61C142.364 51.6733 142.211 51.78 142.084 51.93C141.958 52.08 141.894 52.285 141.894 52.545V56H140.974V52.44C140.974 52.2367 140.919 52.0667 140.809 51.93C140.703 51.7933 140.568 51.69 140.404 51.62C140.244 51.55 140.084 51.515 139.924 51.515C139.748 51.515 139.569 51.55 139.389 51.62C139.213 51.69 139.063 51.8017 138.939 51.955C138.819 52.105 138.759 52.3017 138.759 52.545V56H137.839ZM149.238 57.65C148.935 57.65 148.726 57.6283 148.613 57.585C148.5 57.5417 148.443 57.52 148.443 57.52V56.92L148.968 56.93C149.161 56.9367 149.321 56.9233 149.448 56.89C149.575 56.8567 149.676 56.8117 149.753 56.755C149.83 56.6983 149.888 56.635 149.928 56.565C149.971 56.495 150.006 56.4283 150.033 56.365L150.213 55.875L148.193 50.83H149.128L150.653 54.82L152.168 50.83H153.073L150.893 56.39C150.76 56.7167 150.61 56.9717 150.443 57.155C150.28 57.3383 150.096 57.4667 149.893 57.54C149.693 57.6133 149.475 57.65 149.238 57.65ZM155.929 56.1C155.453 56.1 155.036 55.9983 154.679 55.795C154.323 55.5883 154.046 55.2867 153.849 54.89C153.653 54.4933 153.554 54.0083 153.554 53.435C153.554 52.895 153.646 52.4217 153.829 52.015C154.013 51.6083 154.281 51.2933 154.634 51.07C154.991 50.8433 155.423 50.73 155.929 50.73C156.406 50.73 156.819 50.835 157.169 51.045C157.523 51.2517 157.796 51.5567 157.989 51.96C158.183 52.3633 158.279 52.855 158.279 53.435C158.279 53.9617 158.189 54.425 158.009 54.825C157.833 55.225 157.569 55.5383 157.219 55.765C156.873 55.9883 156.443 56.1 155.929 56.1ZM155.929 55.37C156.239 55.37 156.501 55.2917 156.714 55.135C156.928 54.9783 157.089 54.7533 157.199 54.46C157.309 54.1667 157.364 53.8183 157.364 53.415C157.364 53.045 157.316 52.7133 157.219 52.42C157.123 52.1233 156.968 51.8883 156.754 51.715C156.544 51.5417 156.269 51.455 155.929 51.455C155.616 51.455 155.351 51.5333 155.134 51.69C154.918 51.8433 154.753 52.0667 154.639 52.36C154.529 52.6533 154.474 53.005 154.474 53.415C154.474 53.7783 154.524 54.1083 154.624 54.405C154.724 54.7017 154.881 54.9367 155.094 55.11C155.308 55.2833 155.586 55.37 155.929 55.37ZM161.302 56.1C161.032 56.0967 160.777 56.0583 160.537 55.985C160.3 55.9083 160.09 55.7967 159.907 55.65C159.723 55.5033 159.578 55.3217 159.472 55.105C159.368 54.885 159.317 54.63 159.317 54.34V50.83H160.242V54.245C160.242 54.5817 160.345 54.855 160.552 55.065C160.762 55.275 161.077 55.38 161.497 55.38C161.877 55.38 162.182 55.2817 162.412 55.085C162.645 54.885 162.762 54.5883 162.762 54.195V50.83H163.682V56H162.947L162.852 55.01C162.788 55.27 162.68 55.48 162.527 55.64C162.377 55.8 162.195 55.9183 161.982 55.995C161.772 56.0683 161.545 56.1033 161.302 56.1ZM165.193 56V50.83H166.073V51.825C166.159 51.5783 166.281 51.375 166.438 51.215C166.594 51.0517 166.773 50.93 166.973 50.85C167.176 50.77 167.386 50.73 167.603 50.73C167.679 50.73 167.754 50.735 167.828 50.745C167.901 50.755 167.958 50.7717 167.998 50.795V51.69C167.948 51.6667 167.883 51.6517 167.803 51.645C167.726 51.635 167.661 51.63 167.608 51.63C167.401 51.6167 167.208 51.63 167.028 51.67C166.848 51.7067 166.689 51.7717 166.553 51.865C166.416 51.9583 166.308 52.0817 166.228 52.235C166.151 52.385 166.113 52.5683 166.113 52.785V56H165.193ZM18.195 70.1C17.8617 70.1 17.5667 70.0417 17.31 69.925C17.0533 69.805 16.8517 69.6333 16.705 69.41C16.5617 69.1867 16.49 68.9167 16.49 68.6C16.49 68.0267 16.69 67.6 17.09 67.32C17.49 67.04 18.1317 66.89 19.015 66.87L19.94 66.845V66.44C19.94 66.1233 19.845 65.8733 19.655 65.69C19.465 65.5033 19.17 65.41 18.77 65.41C18.4733 65.4133 18.2117 65.4833 17.985 65.62C17.7617 65.7567 17.6167 65.98 17.55 66.29H16.735C16.755 65.9533 16.85 65.67 17.02 65.44C17.19 65.2067 17.4267 65.03 17.73 64.91C18.0367 64.79 18.3983 64.73 18.815 64.73C19.265 64.73 19.6383 64.7933 19.935 64.92C20.235 65.0467 20.4583 65.2333 20.605 65.48C20.755 65.7267 20.83 66.03 20.83 66.39V70H20.04L19.975 69.03C19.775 69.4333 19.52 69.7133 19.21 69.87C18.9033 70.0233 18.565 70.1 18.195 70.1ZM18.475 69.435C18.6483 69.435 18.82 69.4033 18.99 69.34C19.1633 69.2767 19.3217 69.1917 19.465 69.085C19.6083 68.975 19.7217 68.8533 19.805 68.72C19.8917 68.5833 19.9367 68.4433 19.94 68.3V67.415L19.17 67.43C18.7767 67.4367 18.4467 67.4767 18.18 67.55C17.9167 67.6233 17.7183 67.7383 17.585 67.895C17.455 68.0517 17.39 68.2567 17.39 68.51C17.39 68.8 17.49 69.0267 17.69 69.19C17.8933 69.3533 18.155 69.435 18.475 69.435ZM24.4695 64.73C24.8395 64.73 25.1729 64.8017 25.4695 64.945C25.7662 65.085 26.0079 65.285 26.1945 65.545C26.3845 65.805 26.5029 66.1117 26.5495 66.465H25.7295C25.6995 66.285 25.6295 66.12 25.5195 65.97C25.4129 65.82 25.2712 65.7 25.0945 65.61C24.9179 65.52 24.7112 65.475 24.4745 65.475C24.0312 65.475 23.6712 65.635 23.3945 65.955C23.1179 66.275 22.9795 66.765 22.9795 67.425C22.9795 68.0217 23.1062 68.5 23.3595 68.86C23.6162 69.2167 23.9929 69.395 24.4895 69.395C24.7262 69.395 24.9312 69.35 25.1045 69.26C25.2812 69.1667 25.4229 69.045 25.5295 68.895C25.6362 68.7417 25.7045 68.5783 25.7345 68.405H26.5395C26.4962 68.7517 26.3795 69.0517 26.1895 69.305C25.9995 69.5583 25.7562 69.755 25.4595 69.895C25.1662 70.0317 24.8362 70.1 24.4695 70.1C24.0062 70.1 23.5945 69.9983 23.2345 69.795C22.8779 69.5917 22.5979 69.2917 22.3945 68.895C22.1912 68.4983 22.0895 68.0117 22.0895 67.435C22.0895 66.895 22.1812 66.4233 22.3645 66.02C22.5512 65.6133 22.8212 65.2967 23.1745 65.07C23.5312 64.8433 23.9629 64.73 24.4695 64.73ZM29.8602 64.73C30.2302 64.73 30.5635 64.8017 30.8602 64.945C31.1568 65.085 31.3985 65.285 31.5852 65.545C31.7752 65.805 31.8935 66.1117 31.9402 66.465H31.1202C31.0902 66.285 31.0202 66.12 30.9102 65.97C30.8035 65.82 30.6618 65.7 30.4852 65.61C30.3085 65.52 30.1018 65.475 29.8652 65.475C29.4218 65.475 29.0618 65.635 28.7852 65.955C28.5085 66.275 28.3702 66.765 28.3702 67.425C28.3702 68.0217 28.4968 68.5 28.7502 68.86C29.0068 69.2167 29.3835 69.395 29.8802 69.395C30.1168 69.395 30.3218 69.35 30.4952 69.26C30.6718 69.1667 30.8135 69.045 30.9202 68.895C31.0268 68.7417 31.0952 68.5783 31.1252 68.405H31.9302C31.8868 68.7517 31.7702 69.0517 31.5802 69.305C31.3902 69.5583 31.1468 69.755 30.8502 69.895C30.5568 70.0317 30.2268 70.1 29.8602 70.1C29.3968 70.1 28.9852 69.9983 28.6252 69.795C28.2685 69.5917 27.9885 69.2917 27.7852 68.895C27.5818 68.4983 27.4802 68.0117 27.4802 67.435C27.4802 66.895 27.5718 66.4233 27.7552 66.02C27.9418 65.6133 28.2118 65.2967 28.5652 65.07C28.9218 64.8433 29.3535 64.73 29.8602 64.73ZM35.2458 70.1C34.7691 70.1 34.3524 69.9983 33.9958 69.795C33.6391 69.5883 33.3624 69.2867 33.1658 68.89C32.9691 68.4933 32.8708 68.0083 32.8708 67.435C32.8708 66.895 32.9624 66.4217 33.1458 66.015C33.3291 65.6083 33.5974 65.2933 33.9508 65.07C34.3074 64.8433 34.7391 64.73 35.2458 64.73C35.7224 64.73 36.1358 64.835 36.4858 65.045C36.8391 65.2517 37.1124 65.5567 37.3058 65.96C37.4991 66.3633 37.5958 66.855 37.5958 67.435C37.5958 67.9617 37.5058 68.425 37.3258 68.825C37.1491 69.225 36.8858 69.5383 36.5358 69.765C36.1891 69.9883 35.7591 70.1 35.2458 70.1ZM35.2458 69.37C35.5558 69.37 35.8174 69.2917 36.0308 69.135C36.2441 68.9783 36.4058 68.7533 36.5158 68.46C36.6258 68.1667 36.6808 67.8183 36.6808 67.415C36.6808 67.045 36.6324 66.7133 36.5358 66.42C36.4391 66.1233 36.2841 65.8883 36.0708 65.715C35.8608 65.5417 35.5858 65.455 35.2458 65.455C34.9324 65.455 34.6674 65.5333 34.4508 65.69C34.2341 65.8433 34.0691 66.0667 33.9558 66.36C33.8458 66.6533 33.7908 67.005 33.7908 67.415C33.7908 67.7783 33.8408 68.1083 33.9408 68.405C34.0408 68.7017 34.1974 68.9367 34.4108 69.11C34.6241 69.2833 34.9024 69.37 35.2458 69.37ZM40.6181 70.1C40.3481 70.0967 40.0931 70.0583 39.8531 69.985C39.6165 69.9083 39.4065 69.7967 39.2231 69.65C39.0398 69.5033 38.8948 69.3217 38.7881 69.105C38.6848 68.885 38.6331 68.63 38.6331 68.34V64.83H39.5581V68.245C39.5581 68.5817 39.6615 68.855 39.8681 69.065C40.0781 69.275 40.3931 69.38 40.8131 69.38C41.1931 69.38 41.4981 69.2817 41.7281 69.085C41.9615 68.885 42.0781 68.5883 42.0781 68.195V64.83H42.9981V70H42.2631L42.1681 69.01C42.1048 69.27 41.9965 69.48 41.8431 69.64C41.6931 69.8 41.5115 69.9183 41.2981 69.995C41.0881 70.0683 40.8615 70.1033 40.6181 70.1ZM44.5091 70V64.83H45.4041V65.58C45.4875 65.4367 45.6025 65.3017 45.7491 65.175C45.8991 65.0483 46.0791 64.9467 46.2891 64.87C46.5025 64.7933 46.7475 64.755 47.0241 64.755C47.3508 64.755 47.6508 64.82 47.9241 64.95C48.2008 65.08 48.4208 65.2833 48.5841 65.56C48.7508 65.8333 48.8341 66.1867 48.8341 66.62V70H47.9091V66.71C47.9091 66.3067 47.8025 66.0083 47.5891 65.815C47.3791 65.6183 47.1058 65.52 46.7691 65.52C46.5358 65.52 46.3175 65.5583 46.1141 65.635C45.9108 65.7083 45.7458 65.8217 45.6191 65.975C45.4925 66.125 45.4291 66.315 45.4291 66.545V70H44.5091ZM52.6631 65.505H51.4981V68.72C51.4981 68.9033 51.5165 69.0383 51.5531 69.125C51.5931 69.2083 51.6581 69.2617 51.7481 69.285C51.8415 69.3083 51.9681 69.32 52.1281 69.32H52.6931V69.94C52.6298 69.9633 52.5331 69.9833 52.4031 70C52.2765 70.0167 52.1181 70.025 51.9281 70.025C51.5715 70.025 51.2948 69.9767 51.0981 69.88C50.9015 69.7833 50.7631 69.64 50.6831 69.45C50.6065 69.26 50.5681 69.0267 50.5681 68.75V65.505H49.7281V64.83H50.5931L50.8181 63.325H51.4981V64.825H52.6631V65.505ZM57.2963 64.83V70H56.4013V64.83H57.2963ZM57.3163 62.775V63.735H56.3713V62.775H57.3163ZM60.7582 70.1C60.3982 70.1 60.0632 70.045 59.7532 69.935C59.4465 69.8217 59.1915 69.6467 58.9882 69.41C58.7849 69.17 58.6565 68.865 58.6032 68.495H59.4432C59.4899 68.6983 59.5732 68.8683 59.6932 69.005C59.8165 69.1383 59.9699 69.24 60.1532 69.31C60.3365 69.3767 60.5365 69.41 60.7532 69.41C61.0999 69.41 61.3799 69.345 61.5932 69.215C61.8065 69.085 61.9132 68.885 61.9132 68.615C61.9132 68.425 61.8565 68.2733 61.7432 68.16C61.6332 68.0433 61.4615 67.9583 61.2282 67.905L60.1582 67.64C59.7415 67.54 59.4082 67.3833 59.1582 67.17C58.9082 66.9567 58.7832 66.6583 58.7832 66.275C58.7799 65.9717 58.8515 65.705 58.9982 65.475C59.1449 65.245 59.3649 65.0633 59.6582 64.93C59.9515 64.7967 60.3165 64.73 60.7532 64.73C61.3132 64.73 61.7649 64.8567 62.1082 65.11C62.4549 65.36 62.6349 65.7283 62.6482 66.215H61.8332C61.7999 65.9683 61.6882 65.7733 61.4982 65.63C61.3115 65.4833 61.0599 65.41 60.7432 65.41C60.4132 65.41 60.1449 65.4767 59.9382 65.61C59.7315 65.74 59.6282 65.9433 59.6282 66.22C59.6282 66.4033 59.7015 66.5483 59.8482 66.655C59.9949 66.7583 60.2115 66.845 60.4982 66.915L61.5332 67.175C61.7732 67.2383 61.9699 67.3217 62.1232 67.425C62.2799 67.5283 62.4032 67.6433 62.4932 67.77C62.5865 67.8967 62.6515 68.03 62.6882 68.17C62.7282 68.3067 62.7482 68.4383 62.7482 68.565C62.7482 68.8817 62.6682 69.155 62.5082 69.385C62.3515 69.6117 62.1249 69.7883 61.8282 69.915C61.5349 70.0383 61.1782 70.1 60.7582 70.1ZM71.9895 67.245C71.9895 67.8283 71.8945 68.335 71.7045 68.765C71.5145 69.1917 71.2062 69.5217 70.7795 69.755C70.3562 69.985 69.7945 70.1 69.0945 70.1C68.3912 70.1 67.8279 69.9833 67.4045 69.75C66.9812 69.5133 66.6745 69.1783 66.4845 68.745C66.2979 68.3117 66.2045 67.795 66.2045 67.195V62.77H67.6895V67.305C67.6895 67.845 67.8195 68.24 68.0795 68.49C68.3395 68.7367 68.6779 68.86 69.0945 68.86C69.3712 68.86 69.6162 68.8067 69.8295 68.7C70.0429 68.59 70.2095 68.4217 70.3295 68.195C70.4529 67.965 70.5145 67.6683 70.5145 67.305V62.77H71.9895V67.245ZM76.1559 70.1C75.7992 70.1 75.4492 70.055 75.1059 69.965C74.7625 69.875 74.4492 69.74 74.1659 69.56C73.8825 69.38 73.6475 69.155 73.4609 68.885C73.2775 68.615 73.1675 68.2983 73.1309 67.935H74.6259C74.6759 68.155 74.7709 68.34 74.9109 68.49C75.0509 68.64 75.2275 68.755 75.4409 68.835C75.6542 68.915 75.8909 68.955 76.1509 68.955C76.4175 68.955 76.6609 68.9217 76.8809 68.855C77.1009 68.7883 77.2775 68.6883 77.4109 68.555C77.5442 68.4183 77.6109 68.2483 77.6109 68.045C77.6109 67.8617 77.5559 67.7117 77.4459 67.595C77.3392 67.4783 77.1942 67.3833 77.0109 67.31C76.8275 67.2367 76.6192 67.1767 76.3859 67.13L75.1359 66.875C74.5892 66.7717 74.1559 66.555 73.8359 66.225C73.5159 65.8917 73.3509 65.4483 73.3409 64.895C73.3375 64.4417 73.4575 64.05 73.7009 63.72C73.9475 63.3867 74.2809 63.13 74.7009 62.95C75.1242 62.77 75.5975 62.68 76.1209 62.68C76.7442 62.68 77.2675 62.7783 77.6909 62.975C78.1175 63.1683 78.4409 63.4317 78.6609 63.765C78.8842 64.095 78.9992 64.4633 79.0059 64.87H77.5409C77.5142 64.6167 77.4375 64.415 77.3109 64.265C77.1842 64.115 77.0209 64.0067 76.8209 63.94C76.6242 63.8733 76.3992 63.84 76.1459 63.84C75.9525 63.84 75.7759 63.8617 75.6159 63.905C75.4592 63.9483 75.3259 64.01 75.2159 64.09C75.1059 64.1667 75.0209 64.2583 74.9609 64.365C74.9009 64.4717 74.8709 64.5917 74.8709 64.725C74.8709 64.935 74.9409 65.105 75.0809 65.235C75.2209 65.365 75.4825 65.4717 75.8659 65.555L77.1059 65.81C77.5492 65.8967 77.9009 66.025 78.1609 66.195C78.4242 66.365 78.6209 66.5567 78.7509 66.77C78.8842 66.9833 78.9709 67.2017 79.0109 67.425C79.0542 67.645 79.0759 67.8483 79.0759 68.035C79.0759 68.425 78.9525 68.7767 78.7059 69.09C78.4625 69.4 78.1225 69.6467 77.6859 69.83C77.2492 70.01 76.7392 70.1 76.1559 70.1ZM85.2186 70.1C84.3519 70.1 83.6486 69.9267 83.1086 69.58C82.5686 69.23 82.2586 68.6917 82.1786 67.965L83.6986 67.935C83.7786 68.265 83.9503 68.5167 84.2136 68.69C84.4803 68.86 84.8136 68.945 85.2136 68.945C85.4536 68.945 85.6653 68.9067 85.8486 68.83C86.0353 68.75 86.1819 68.6433 86.2886 68.51C86.3953 68.3733 86.4486 68.2183 86.4486 68.045C86.4486 67.7783 86.3636 67.58 86.1936 67.45C86.0236 67.3167 85.7619 67.21 85.4086 67.13L84.2236 66.875C83.6736 66.765 83.2319 66.5467 82.8986 66.22C82.5686 65.89 82.4003 65.4483 82.3936 64.895C82.3903 64.4417 82.5119 64.05 82.7586 63.72C83.0086 63.3867 83.3469 63.13 83.7736 62.95C84.2036 62.77 84.6853 62.68 85.2186 62.68C85.7653 62.68 86.2369 62.7783 86.6336 62.975C87.0336 63.1683 87.3403 63.43 87.5536 63.76C87.7703 64.0867 87.8753 64.4483 87.8686 64.845L86.3936 64.87C86.3469 64.55 86.2403 64.2983 86.0736 64.115C85.9069 63.9317 85.6303 63.84 85.2436 63.84C85.0436 63.84 84.8653 63.8617 84.7086 63.905C84.5519 63.9483 84.4169 64.01 84.3036 64.09C84.1903 64.1667 84.1036 64.2583 84.0436 64.365C83.9869 64.4717 83.9586 64.5917 83.9586 64.725C83.9586 64.935 84.0286 65.1017 84.1686 65.225C84.3119 65.345 84.5803 65.4567 84.9736 65.56L86.1386 65.845C86.7953 66.0017 87.2686 66.27 87.5586 66.65C87.8519 67.03 87.9986 67.4917 87.9986 68.035C87.9986 68.4517 87.8836 68.815 87.6536 69.125C87.4269 69.435 87.1053 69.675 86.6886 69.845C86.2719 70.015 85.7819 70.1 85.2186 70.1ZM84.5936 61.735H85.8586V63.035H84.5936V61.735ZM84.5686 69.655H85.8286V70.955H84.5686V69.655ZM90.2102 70V64.585H88.9202V63.76C89.3336 63.76 89.6669 63.7217 89.9202 63.645C90.1769 63.565 90.3686 63.4517 90.4952 63.305C90.6219 63.155 90.6969 62.9767 90.7202 62.77H91.6902V70H90.2102ZM95.9976 62.67C96.8576 62.67 97.5359 62.9917 98.0326 63.635C98.5292 64.275 98.7776 65.1967 98.7776 66.4C98.7776 67.5967 98.5326 68.515 98.0426 69.155C97.5526 69.7917 96.8709 70.11 95.9976 70.11C95.1209 70.11 94.4359 69.7917 93.9426 69.155C93.4526 68.5183 93.2076 67.6017 93.2076 66.405C93.2076 65.605 93.3209 64.9267 93.5476 64.37C93.7742 63.8133 94.0959 63.3917 94.5126 63.105C94.9292 62.815 95.4242 62.67 95.9976 62.67ZM95.9976 68.915C96.4276 68.915 96.7426 68.7233 96.9426 68.34C97.1426 67.9533 97.2426 67.3083 97.2426 66.405C97.2426 65.4817 97.1409 64.82 96.9376 64.42C96.7342 64.02 96.4192 63.82 95.9926 63.82C95.5659 63.82 95.2476 64.0217 95.0376 64.425C94.8309 64.8283 94.7276 65.4883 94.7276 66.405C94.7276 67.305 94.8309 67.9483 95.0376 68.335C95.2442 68.7217 95.5642 68.915 95.9976 68.915ZM102.899 62.77H104.334V67.175H105.449V68.4H104.334V70H102.929L102.934 68.4H99.6038V67.2L102.899 62.77ZM100.954 67.175H102.934V64.525L100.954 67.175ZM106.231 70V68.41H107.831V70H106.231ZM111.527 70.11C111.077 70.11 110.657 70.0233 110.267 69.85C109.877 69.6767 109.558 69.4333 109.312 69.12C109.065 68.8033 108.927 68.4333 108.897 68.01H110.287C110.347 68.29 110.48 68.5183 110.687 68.695C110.893 68.8683 111.153 68.955 111.467 68.955C111.813 68.955 112.117 68.8733 112.377 68.71C112.64 68.5467 112.837 68.2867 112.967 67.93C113.1 67.5733 113.147 67.1067 113.107 66.53C113.013 66.7067 112.883 66.8617 112.717 66.995C112.553 67.125 112.362 67.2267 112.142 67.3C111.922 67.37 111.677 67.405 111.407 67.405C110.917 67.405 110.482 67.3133 110.102 67.13C109.725 66.9433 109.428 66.68 109.212 66.34C108.998 65.9967 108.892 65.59 108.892 65.12C108.892 64.6467 109.005 64.225 109.232 63.855C109.458 63.485 109.775 63.195 110.182 62.985C110.588 62.775 111.065 62.67 111.612 62.67C112.225 62.67 112.753 62.8167 113.197 63.11C113.643 63.4 113.985 63.8133 114.222 64.35C114.462 64.8833 114.582 65.5117 114.582 66.235C114.582 67.0983 114.458 67.8183 114.212 68.395C113.968 68.9683 113.618 69.3983 113.162 69.685C112.705 69.9683 112.16 70.11 111.527 70.11ZM111.657 66.245C111.86 66.245 112.057 66.2 112.247 66.11C112.44 66.0167 112.598 65.9 112.722 65.76C112.845 65.62 112.907 65.475 112.907 65.325C112.91 65.0017 112.858 64.725 112.752 64.495C112.648 64.2617 112.502 64.0833 112.312 63.96C112.125 63.8367 111.907 63.775 111.657 63.775C111.427 63.775 111.222 63.8283 111.042 63.935C110.862 64.0417 110.72 64.1917 110.617 64.385C110.513 64.5783 110.462 64.8017 110.462 65.055C110.462 65.4317 110.572 65.725 110.792 65.935C111.012 66.1417 111.3 66.245 111.657 66.245ZM118.224 62.67C119.084 62.67 119.762 62.9917 120.259 63.635C120.756 64.275 121.004 65.1967 121.004 66.4C121.004 67.5967 120.759 68.515 120.269 69.155C119.779 69.7917 119.097 70.11 118.224 70.11C117.347 70.11 116.662 69.7917 116.169 69.155C115.679 68.5183 115.434 67.6017 115.434 66.405C115.434 65.605 115.547 64.9267 115.774 64.37C116.001 63.8133 116.322 63.3917 116.739 63.105C117.156 62.815 117.651 62.67 118.224 62.67ZM118.224 68.915C118.654 68.915 118.969 68.7233 119.169 68.34C119.369 67.9533 119.469 67.3083 119.469 66.405C119.469 65.4817 119.367 64.82 119.164 64.42C118.961 64.02 118.646 63.82 118.219 63.82C117.792 63.82 117.474 64.0217 117.264 64.425C117.057 64.8283 116.954 65.4883 116.954 66.405C116.954 67.305 117.057 67.9483 117.264 68.335C117.471 68.7217 117.791 68.915 118.224 68.915ZM121.989 70V68.82H123.089V70H121.989Z" fill="#36536B"/>
</g>
<defs>
<filter id="filter0_d_0_4927" x="-5" y="-5" width="248" height="117" filterUnits="userSpaceOnUse" color-interpolation-filters="sRGB">
<feFlood flood-opacity="0" result="BackgroundImageFix"/>
<feColorMatrix in="SourceAlpha" type="matrix" values="0 0 0 0 0 0 0 0 0 0 0 0 0 0 0 0 0 0 127 0" result="hardAlpha"/>
<feMorphology radius="10" operator="erode" in="SourceAlpha" result="effect1_dropShadow_0_4927"/>
<feOffset dx="10" dy="10"/>
<feGaussianBlur stdDeviation="12.5"/>
<feColorMatrix type="matrix" values="0 0 0 0 0.212302 0 0 0 0 0.32521 0 0 0 0 0.419299 0 0 0 0.25 0"/>
<feBlend mode="normal" in2="BackgroundImageFix" result="effect1_dropShadow_0_4927"/>
<feBlend mode="normal" in="SourceGraphic" in2="effect1_dropShadow_0_4927" result="shape"/>
</filter>
<clipPath id="clip0_0_4927">
<rect width="218" height="87" fill="white"/>
</clipPath>
<clipPath id="clip1_0_4927">
<rect width="187" height="11" fill="white" transform="translate(16 16)"/>
</clipPath>
</defs>
</svg>
